<svg width="35" height="35" viewBox="0 0 35 35" fill="none" xmlns="http://www.w3.org/2000/svg">
<mask id="mask0_73_10266" style="mask-type:alpha" maskUnits="userSpaceOnUse" x="0" y="0" width="35" height="35">
<circle cx="17.9375" cy="17.0834" r="17.0417" fill="#EFF0F6"/>
</mask>
<g mask="url(#mask0_73_10266)">
<mask id="mask1_73_10266" style="mask-type:alpha" maskUnits="userSpaceOnUse" x="0" y="0" width="35" height="35">
<rect x="0.895813" y="0.041687" width="34.0833" height="34.0833" rx="17.0417" fill="#C4C4C4"/>
</mask>
<g mask="url(#mask1_73_10266)">
<mask id="mask2_73_10266" style="mask-type:alpha" maskUnits="userSpaceOnUse" x="0" y="0" width="35" height="35">
<rect x="0.895813" y="0.041687" width="34.0833" height="34.0833" fill="#C4C4C4"/>
</mask>
<g mask="url(#mask2_73_10266)">
<rect x="0.895813" y="0.041687" width="34.0833" height="34.0833" fill="#F5EFFF"/>
<path d="M31.9493 34.1255H3.73608C3.73608 34.1255 4.11473 32.3307 4.65431 30.5284C5.19388 28.726 6.30901 27.9706 7.75357 27.6014C8.16062 27.4972 8.90655 27.2795 9.76798 27.0239C10.0993 26.9236 10.4496 26.8195 10.8036 26.7116C10.9683 26.6623 11.1349 26.6112 11.3015 26.5601C13.119 26.0073 14.893 25.4563 14.893 25.4563L17.8276 25.2216L17.8446 25.2197L17.8616 25.2216L20.5084 25.4336C20.5084 25.4336 22.1006 25.9107 23.8386 26.4257C24.1719 26.5241 24.5126 26.6245 24.8459 26.7229C26.1465 27.1035 27.3752 27.4594 27.9319 27.6014C29.3764 27.9725 30.4915 28.726 31.0311 30.5284C31.5707 32.3307 31.9493 34.1255 31.9493 34.1255Z" fill="#19274B"/>
<path d="M24.8459 26.7205C24.6755 27.4532 24.382 28.4188 23.886 29.373C22.9166 31.2435 21.1767 33.0819 18.0794 33.0819C14.7984 33.0819 12.9221 31.1772 11.8752 29.3503C11.2939 28.3336 10.9683 27.3415 10.8017 26.7111C10.9664 26.6618 11.133 26.6107 11.2996 26.5596C13.1171 26.0068 14.8911 25.4558 14.8911 25.4558L17.8257 25.2211L17.8427 25.2192L17.8597 25.2211L20.5065 25.4331C20.5065 25.4331 22.0987 25.9102 23.8367 26.4252C24.1719 26.5217 24.5107 26.6221 24.8459 26.7205Z" fill="#FF8881"/>
<path d="M14.1452 25.9784C14.0676 25.9784 13.9937 25.9481 13.9388 25.8932C13.9256 25.8799 13.9123 25.8648 13.9029 25.8496C13.8915 25.8345 13.8839 25.8174 13.8764 25.7985C13.8688 25.7815 13.8631 25.7625 13.8593 25.7436C13.8555 25.7247 13.8536 25.7057 13.8536 25.6868C13.8536 25.6679 13.8555 25.6489 13.8593 25.63C13.8631 25.6111 13.8688 25.5921 13.8764 25.5751C13.8839 25.5581 13.8915 25.541 13.9029 25.5259C13.9142 25.5107 13.9256 25.4956 13.9388 25.4823C13.9937 25.4274 14.0676 25.3971 14.1452 25.3971C14.2228 25.3971 14.2967 25.4274 14.3516 25.4823C14.3648 25.4956 14.3781 25.5107 14.3875 25.5259C14.397 25.541 14.4065 25.5581 14.414 25.5751C14.4216 25.5921 14.4273 25.6111 14.4311 25.63C14.4349 25.6489 14.4368 25.6679 14.4368 25.6868C14.4368 25.7057 14.4349 25.7247 14.4311 25.7436C14.4273 25.7625 14.4216 25.7796 14.414 25.7985C14.4065 25.8155 14.397 25.8326 14.3875 25.8496C14.3762 25.8648 14.3648 25.8799 14.3516 25.8932C14.3383 25.9064 14.3232 25.9197 14.308 25.9291C14.2929 25.9386 14.2758 25.9481 14.2569 25.9556C14.2399 25.9632 14.2209 25.9689 14.202 25.9727C14.1831 25.9765 14.1641 25.9784 14.1452 25.9784Z" fill="#F5EFFF"/>
<path d="M17.8617 28.947C17.7008 28.947 17.5701 28.8144 17.572 28.6554C17.572 28.4945 17.7027 28.3639 17.8636 28.3657C18.0245 28.3657 18.1551 28.4964 18.1551 28.6573C18.1532 28.8163 18.0226 28.947 17.8617 28.947ZM18.318 28.6478C18.2952 28.4888 18.4069 28.3411 18.566 28.3184C18.725 28.2957 18.8727 28.4074 18.8935 28.5664C18.9162 28.7255 18.8045 28.8731 18.6455 28.8959C18.6322 28.8978 18.619 28.8977 18.6057 28.8977C18.4618 28.8977 18.3388 28.7936 18.318 28.6478ZM17.076 28.8902C16.917 28.8675 16.8071 28.7179 16.8299 28.5589C16.8526 28.3998 17.0021 28.29 17.1612 28.3127C17.3202 28.3355 17.43 28.4831 17.4073 28.6422C17.3865 28.7879 17.2615 28.8921 17.1195 28.8921C17.1044 28.8921 17.0892 28.8921 17.076 28.8902ZM19.0563 28.5324C19.0052 28.379 19.0885 28.2143 19.2419 28.1651C19.3952 28.1139 19.5599 28.1972 19.6092 28.3506C19.6603 28.504 19.577 28.6687 19.4236 28.7179C19.3933 28.7274 19.363 28.733 19.3327 28.733C19.2116 28.733 19.0961 28.6554 19.0563 28.5324ZM16.2979 28.7065C16.1445 28.6554 16.0631 28.4888 16.1161 28.3373C16.1672 28.184 16.3319 28.1026 16.4853 28.1556C16.6386 28.2067 16.7201 28.3733 16.667 28.5248C16.6254 28.6459 16.5118 28.7236 16.3906 28.7236C16.3603 28.7217 16.33 28.716 16.2979 28.7065ZM19.7606 28.2824C19.6773 28.1442 19.7228 27.9663 19.861 27.883C19.9992 27.7997 20.1771 27.8451 20.2604 27.9833C20.3437 28.1215 20.2983 28.2995 20.1601 28.3828C20.1128 28.4112 20.0616 28.4244 20.0105 28.4244C19.914 28.4244 19.8155 28.3733 19.7606 28.2824ZM15.5652 28.3676C15.427 28.2843 15.3834 28.1064 15.4667 27.9682C15.55 27.83 15.728 27.7864 15.8662 27.8697C16.0044 27.953 16.0479 28.1329 15.9646 28.2692C15.9097 28.3601 15.8132 28.4093 15.7147 28.4093C15.6636 28.4093 15.6106 28.396 15.5652 28.3676ZM20.393 27.8811C20.2794 27.7675 20.2813 27.5819 20.3949 27.4683C20.5085 27.3548 20.694 27.3548 20.8076 27.4702C20.9212 27.5838 20.9212 27.7694 20.8057 27.883C20.7489 27.9398 20.6751 27.9682 20.6012 27.9682C20.5255 27.9682 20.4498 27.9398 20.393 27.8811ZM14.9215 27.8678C14.806 27.7542 14.806 27.5706 14.9177 27.4551C15.0313 27.3396 15.2149 27.3396 15.3304 27.4532C15.4459 27.5668 15.4459 27.7504 15.3323 27.864C15.2755 27.9227 15.1998 27.9511 15.124 27.9511C15.0521 27.9511 14.9783 27.9227 14.9215 27.8678ZM20.9098 27.3396C20.7716 27.2544 20.73 27.0745 20.8152 26.9382C20.9004 26.8019 21.0802 26.7584 21.2165 26.8436C21.3528 26.9288 21.3964 27.1067 21.3112 27.2449C21.2563 27.3339 21.1597 27.3831 21.0632 27.3831C21.0102 27.3831 20.9572 27.3699 20.9098 27.3396ZM14.4141 27.2336C14.3289 27.0973 14.3686 26.9174 14.5049 26.8322C14.6413 26.747 14.8211 26.7868 14.9063 26.9231C14.9915 27.0594 14.9518 27.2393 14.8154 27.3245C14.7662 27.3548 14.7132 27.3699 14.6602 27.3699C14.5636 27.3699 14.469 27.3226 14.4141 27.2336ZM21.2866 26.6921C21.1351 26.6391 21.0556 26.4725 21.1086 26.321C21.1616 26.1696 21.3282 26.0901 21.4797 26.1431C21.6312 26.1961 21.7107 26.3627 21.6577 26.5141C21.616 26.6334 21.5024 26.7092 21.3831 26.7092C21.351 26.7092 21.3188 26.7035 21.2866 26.6921ZM14.0562 26.5104C14.0013 26.3589 14.0771 26.1923 14.2285 26.1355C14.38 26.0787 14.5466 26.1563 14.6034 26.3078C14.6583 26.4574 14.5826 26.6259 14.4311 26.6827C14.397 26.6959 14.363 26.7016 14.3289 26.7016C14.2115 26.6997 14.0998 26.6277 14.0562 26.5104Z" fill="#F5EFFF"/>
<path d="M21.5554 25.9784C21.5365 25.9784 21.5175 25.9765 21.4986 25.9727C21.4797 25.9689 21.4626 25.9632 21.4437 25.9556C21.4267 25.9481 21.4096 25.9386 21.3926 25.9291C21.3774 25.9178 21.3623 25.9064 21.3491 25.8932C21.3358 25.8799 21.3225 25.8648 21.3131 25.8496C21.3017 25.8345 21.2923 25.8174 21.2866 25.7985C21.279 25.7815 21.2733 25.7625 21.2695 25.7436C21.2657 25.7247 21.2639 25.7057 21.2639 25.6868C21.2639 25.6679 21.2657 25.6489 21.2695 25.63C21.2733 25.6111 21.279 25.594 21.2866 25.5751C21.2941 25.5581 21.3036 25.541 21.3131 25.5259C21.3225 25.5107 21.3358 25.4956 21.3491 25.4823C21.3623 25.4691 21.3774 25.4558 21.3926 25.4464C21.4077 25.435 21.4248 25.4274 21.4437 25.4198C21.4608 25.4123 21.4797 25.4066 21.4986 25.4028C21.5365 25.3952 21.5743 25.3952 21.6122 25.4028C21.6311 25.4066 21.6482 25.4123 21.6671 25.4198C21.6842 25.4274 21.7012 25.435 21.7163 25.4464C21.7315 25.4577 21.7466 25.4691 21.7618 25.4823C21.775 25.4956 21.7864 25.5107 21.7978 25.5259C21.8091 25.541 21.8167 25.5581 21.8243 25.5751C21.8318 25.5921 21.8375 25.6111 21.8413 25.63C21.8451 25.6489 21.847 25.6679 21.847 25.6868C21.847 25.7057 21.8451 25.7247 21.8413 25.7436C21.8375 25.7625 21.8318 25.7796 21.8243 25.7985C21.8167 25.8155 21.8091 25.8326 21.7978 25.8496C21.7864 25.8648 21.775 25.8799 21.7618 25.8932C21.7485 25.9064 21.7334 25.9197 21.7163 25.9291C21.7012 25.9386 21.6842 25.9481 21.6671 25.9556C21.6501 25.9632 21.6311 25.9689 21.6122 25.9727C21.5933 25.9765 21.5744 25.9784 21.5554 25.9784Z" fill="#F5EFFF"/>
<path d="M23.886 29.373C22.9166 31.2435 21.1767 33.0819 18.0794 33.0819C14.7984 33.0819 12.9222 31.1772 11.8752 29.3503C14.5598 30.0053 19.1245 30.6755 23.886 29.373Z" fill="#F5EFFF"/>
<path d="M17.8603 25.2173V25.2212L17.8427 25.2192L17.8603 25.2173Z" fill="#5D46C2"/>
<path d="M17.8433 25.2192L17.8257 25.2212V25.2173L17.8433 25.2192Z" fill="#5D46C2"/>
<path d="M21.4512 7.87886C21.4115 8.03411 21.3585 8.19314 21.2922 8.35218C21.2638 8.42033 21.2335 8.49039 21.2013 8.56044C21.1862 8.59262 21.171 8.62481 21.154 8.65888C20.5633 9.82702 19.3497 10.5465 18.0415 10.5465H16.915C16.0043 10.5465 15.124 10.1962 14.4727 9.55818C14.183 9.27419 13.8972 8.93909 13.6738 8.55476C13.6359 8.49039 13.5999 8.42223 13.5658 8.35407C13.545 8.31053 13.5242 8.26698 13.5052 8.22154C13.0831 7.21623 13.3008 5.68269 14.4235 4.66791C17.2141 2.14799 22.3543 4.39717 21.4512 7.87886Z" fill="#E9356E"/>
<path d="M21.4512 7.87885C21.4114 8.0341 21.3584 8.19313 21.2921 8.35217C21.2637 8.42032 21.2334 8.49037 21.2013 8.56042C21.1861 8.59261 21.171 8.62479 21.1539 8.65887C20.5632 9.82701 19.3497 10.5464 18.0414 10.5464H16.9149C16.0043 10.5464 15.1239 10.1962 14.4726 9.55817C14.183 9.27418 13.8971 8.93908 13.6737 8.55474C13.6358 8.49037 13.5999 8.42222 13.5658 8.35406C13.5449 8.31052 13.5241 8.26697 13.5052 8.22153C14.3193 7.68195 15.7468 6.97388 17.6363 6.97388C19.1414 6.97388 20.4799 7.42447 21.4512 7.87885Z" fill="#FFAC32"/>
<path d="M17.5909 21.8246C21.5402 21.8246 24.7417 18.6231 24.7417 14.6738C24.7417 10.7245 21.5402 7.52295 17.5909 7.52295C13.6416 7.52295 10.4401 10.7245 10.4401 14.6738C10.4401 18.6231 13.6416 21.8246 17.5909 21.8246Z" fill="#E9356E"/>
<path d="M20.4591 26.153C20.4591 26.153 19.7283 27.5199 17.6874 27.5199C15.7146 27.5199 14.8854 26.0848 14.8854 26.0848L15.0065 25.1022L15.0274 24.9375L15.2167 23.3888L20.0975 23.5251L20.1789 24.1139L20.2054 24.3071L20.4591 26.153Z" fill="#FF8881"/>
<path d="M20.1771 24.1116C19.0714 25.0487 17.2823 25.4047 15.0066 25.0999L15.0274 24.9352L15.2167 23.3865L20.0975 23.5228L20.1771 24.1116Z" fill="#19274B"/>
<path d="M13.3822 19.3595C12.2898 20.8836 9.94027 19.8537 10.0993 17.8317C10.2451 15.9971 12.2936 16.2887 12.2936 16.2887L13.3822 19.3595Z" fill="#F55B5D"/>
<path d="M11.9414 19.3406C11.9414 19.5451 11.7767 19.7098 11.5722 19.7098C11.3678 19.7098 11.2031 19.5451 11.2031 19.3406C11.2031 19.1361 11.3678 18.9714 11.5722 18.9714C11.7767 18.9714 11.9414 19.138 11.9414 19.3406Z" fill="#F5EFFF"/>
<path d="M12.3787 19.3974C12.3125 19.3974 12.2538 19.352 12.2367 19.2857C12.0228 18.4167 11.1216 17.6064 11.114 17.5988C11.0535 17.5458 11.0478 17.453 11.1027 17.3925C11.1557 17.3319 11.2485 17.3262 11.3091 17.3811C11.3488 17.4171 12.2879 18.2596 12.5226 19.2157C12.5416 19.2933 12.4942 19.3728 12.4166 19.3917C12.4015 19.3955 12.3901 19.3974 12.3787 19.3974Z" fill="#D1373F"/>
<path d="M12.002 18.5738C11.9869 18.5738 11.9717 18.572 11.9566 18.5663C11.5571 18.4319 11.1766 18.5133 11.1728 18.5152C11.0952 18.5322 11.0156 18.483 10.9986 18.4053C10.9816 18.3277 11.0308 18.2501 11.1084 18.2312C11.1274 18.2274 11.5704 18.1308 12.0494 18.2918C12.1251 18.3164 12.1668 18.3997 12.1421 18.4754C12.1194 18.5341 12.0626 18.5738 12.002 18.5738Z" fill="#D1373F"/>
<path d="M21.4664 19.3595C22.5588 20.8836 24.9083 19.8537 24.7493 17.8317C24.6035 15.9971 22.555 16.2887 22.555 16.2887L21.4664 19.3595Z" fill="#F55B5D"/>
<path d="M23.6474 19.3406C23.6474 19.5451 23.4827 19.7098 23.2782 19.7098C23.0738 19.7098 22.9091 19.5451 22.9091 19.3406C22.9091 19.1361 23.0738 18.9714 23.2782 18.9714C23.4808 18.9714 23.6474 19.138 23.6474 19.3406Z" fill="#F5EFFF"/>
<path d="M22.4698 19.3974C22.4584 19.3974 22.4471 19.3955 22.4357 19.3936C22.3581 19.3747 22.3089 19.2952 22.3297 19.2176C22.5644 18.2615 23.5035 17.4171 23.5433 17.383C23.6038 17.33 23.6947 17.3357 23.7496 17.3944C23.8026 17.455 23.797 17.5458 23.7383 17.6007C23.7288 17.6083 22.8276 18.4186 22.6156 19.2876C22.5947 19.3539 22.536 19.3974 22.4698 19.3974Z" fill="#D1373F"/>
<path d="M22.8465 18.5738C22.7859 18.5738 22.7291 18.536 22.7083 18.4735C22.6818 18.3977 22.7234 18.3144 22.8011 18.2898C23.2801 18.1289 23.7231 18.2255 23.742 18.2292C23.8196 18.2463 23.8708 18.3239 23.8518 18.4034C23.8348 18.4811 23.7572 18.5303 23.6776 18.5132C23.6739 18.5113 23.2914 18.4318 22.8938 18.5644C22.8768 18.57 22.8617 18.5738 22.8465 18.5738Z" fill="#D1373F"/>
<path d="M11.86 14.0584C11.86 14.0584 11.3261 17.364 12.7082 20.5977C13.9597 23.5285 15.6257 24.441 17.3997 24.4694C19.416 24.5016 23.638 23.3354 22.9696 13.7688C22.519 7.3052 12.3939 7.53428 11.86 14.0584Z" fill="#FF8881"/>
<path d="M21.4663 11.919C21.4663 11.919 22.4092 14.4711 22.9109 15.1262L23.4618 13.4336C23.4618 13.4336 23.0623 8.54715 17.4015 8.54715C11.5476 8.54715 11.7483 13.4336 11.7483 13.4336L12.25 15.7339C12.25 15.7339 13.7229 13.5378 13.8346 12.0819C13.8346 12.0819 15.7923 14.2515 17.6041 13.9921C17.6041 13.9921 16.9396 13.2803 16.7616 12.7293C16.7616 12.7293 19.9271 14.3992 22.0457 13.7971C22.0457 13.7971 21.508 13.0209 21.4663 11.919Z" fill="#E9356E"/>
<path d="M11.7483 13.4318C11.7483 13.4318 11.0629 14.9994 11.451 16.4061C11.8392 17.8128 13.4617 19.4523 12.3125 21.1032C11.1652 22.7542 12.4147 25.134 14.1451 24.6966C14.1451 24.6966 12.3352 24.513 12.428 22.6311C12.5188 20.7492 14.4424 20.3762 12.9865 17.7295C11.5306 15.0827 12.8407 13.019 12.8407 13.019L11.7483 13.4318Z" fill="#E9356E"/>
<path d="M23.4619 13.4318C23.4619 13.4318 24.1472 14.9994 23.7591 16.4061C23.371 17.8128 21.7485 19.4523 22.8977 21.1032C24.045 22.7542 22.7954 25.134 21.065 24.6966C21.065 24.6966 22.8749 24.513 22.7822 22.6311C22.6913 20.7492 20.7678 20.3762 22.2237 17.7295C23.6796 15.0827 22.3695 13.019 22.3695 13.019L23.4619 13.4318Z" fill="#E9356E"/>
<path d="M13.7438 15.734C13.7438 15.734 14.5162 14.6586 15.8472 14.5204C16.063 14.4977 16.2542 14.6643 16.2675 14.8801V14.8839C16.2807 15.1035 16.1066 15.289 15.8869 15.2928C15.3871 15.2985 14.5086 15.3705 13.7438 15.734Z" fill="#E9356E"/>
<path d="M21.2108 15.734C21.2108 15.734 20.4383 14.6586 19.1074 14.5204C18.8915 14.4977 18.7003 14.6643 18.687 14.8801V14.8839C18.6738 15.1035 18.848 15.289 19.0676 15.2928C19.5674 15.2985 20.444 15.3705 21.2108 15.734Z" fill="#E9356E"/>
<path d="M17.6515 22.7541C17.2368 22.7541 16.9074 22.6084 16.8866 22.5989C16.826 22.5705 16.7976 22.4985 16.826 22.438C16.8544 22.3774 16.9264 22.349 16.9869 22.3774C16.9945 22.3812 17.7442 22.7087 18.3444 22.3149C18.4012 22.277 18.475 22.2941 18.5129 22.349C18.5489 22.4058 18.5337 22.4796 18.4788 22.5175C18.2024 22.6973 17.909 22.7541 17.6515 22.7541Z" fill="#F55B5D"/>
<path d="M18.0812 19.6606C18.0774 19.6606 18.0755 19.6606 18.0717 19.6606L17.1838 19.5886C17.1175 19.5829 17.0664 19.5243 17.0721 19.458C17.0778 19.3917 17.1365 19.3425 17.2027 19.3463L17.9449 19.4069L17.7139 17.1501C17.7063 17.0839 17.7556 17.0233 17.8218 17.0176C17.8881 17.01 17.9487 17.0592 17.9543 17.1255L18.2005 19.528C18.2043 19.564 18.191 19.6 18.1664 19.6246C18.1437 19.6473 18.1134 19.6606 18.0812 19.6606Z" fill="#F55B5D"/>
<path d="M15.7468 20.628C16.8392 20.7984 17.9506 20.8723 19.4387 20.5769C19.4387 20.5769 19.3099 22.1672 17.5435 22.1729C16.0403 22.1786 15.7468 20.628 15.7468 20.628Z" fill="#F5EFFF"/>
<path d="M15.6578 17.1369C15.6578 17.5572 15.4666 17.8998 15.2299 17.8998C14.9933 17.8998 14.8021 17.559 14.8021 17.1369C14.8021 16.7165 14.9933 16.3739 15.2299 16.3739C15.4666 16.3758 15.6578 16.7165 15.6578 17.1369Z" fill="#19274B"/>
<path d="M20.2036 17.1369C20.2036 17.5572 20.0124 17.8998 19.7757 17.8998C19.5391 17.8998 19.3478 17.559 19.3478 17.1369C19.3478 16.7165 19.5391 16.3739 19.7757 16.3739C20.0124 16.3758 20.2036 16.7165 20.2036 17.1369Z" fill="#19274B"/>
<path d="M14.0959 18.7007C14.0959 18.7726 14.0372 18.8313 13.9653 18.8313C13.8933 18.8313 13.8347 18.7726 13.8347 18.7007C13.8347 18.6288 13.8933 18.5701 13.9653 18.5701C14.0372 18.5701 14.0959 18.6288 14.0959 18.7007Z" fill="#F55B5D"/>
<path d="M14.7358 19.0169C14.7358 19.0888 14.6771 19.1475 14.6052 19.1475C14.5332 19.1475 14.4745 19.0888 14.4745 19.0169C14.4745 18.9449 14.5332 18.8862 14.6052 18.8862C14.6771 18.8862 14.7358 18.9449 14.7358 19.0169Z" fill="#F55B5D"/>
<path d="M14.0959 19.4731C14.0959 19.5451 14.0372 19.6038 13.9653 19.6038C13.8933 19.6038 13.8347 19.5451 13.8347 19.4731C13.8347 19.4012 13.8933 19.3425 13.9653 19.3425C14.0372 19.3406 14.0959 19.4012 14.0959 19.4731Z" fill="#F55B5D"/>
<path d="M15.1031 19.6038C15.1031 19.6758 15.0444 19.7344 14.9724 19.7344C14.9005 19.7344 14.8418 19.6758 14.8418 19.6038C14.8418 19.5319 14.9005 19.4732 14.9724 19.4732C15.0444 19.4732 15.1031 19.5319 15.1031 19.6038Z" fill="#F55B5D"/>
<path d="M15.7733 19.4731C15.7733 19.5451 15.7146 19.6038 15.6427 19.6038C15.5707 19.6038 15.512 19.5451 15.512 19.4731C15.512 19.4012 15.5707 19.3425 15.6427 19.3425C15.7146 19.3406 15.7733 19.4012 15.7733 19.4731Z" fill="#F55B5D"/>
<path d="M15.4685 18.8313C15.4685 18.9033 15.4098 18.962 15.3378 18.962C15.2659 18.962 15.2072 18.9033 15.2072 18.8313C15.2072 18.7594 15.2659 18.7007 15.3378 18.7007C15.4098 18.7007 15.4685 18.7594 15.4685 18.8313Z" fill="#F55B5D"/>
<path d="M21.1672 18.7007C21.1672 18.7726 21.2259 18.8313 21.2979 18.8313C21.3698 18.8313 21.4285 18.7726 21.4285 18.7007C21.4285 18.6288 21.3698 18.5701 21.2979 18.5701C21.2259 18.5701 21.1672 18.6288 21.1672 18.7007Z" fill="#F55B5D"/>
<path d="M20.6579 19.1475C20.7301 19.1475 20.7885 19.089 20.7885 19.0169C20.7885 18.9447 20.7301 18.8862 20.6579 18.8862C20.5858 18.8862 20.5273 18.9447 20.5273 19.0169C20.5273 19.089 20.5858 19.1475 20.6579 19.1475Z" fill="#F55B5D"/>
<path d="M21.1672 19.4731C21.1672 19.5451 21.2259 19.6038 21.2979 19.6038C21.3698 19.6038 21.4285 19.5451 21.4285 19.4731C21.4285 19.4012 21.3698 19.3425 21.2979 19.3425C21.2259 19.3406 21.1672 19.4012 21.1672 19.4731Z" fill="#F55B5D"/>
<path d="M20.1619 19.6038C20.1619 19.6758 20.2206 19.7344 20.2925 19.7344C20.3644 19.7344 20.4231 19.6758 20.4231 19.6038C20.4231 19.5319 20.3644 19.4732 20.2925 19.4732C20.2206 19.4732 20.1619 19.5319 20.1619 19.6038Z" fill="#F55B5D"/>
<path d="M19.4898 19.4731C19.4898 19.5451 19.5485 19.6038 19.6204 19.6038C19.6924 19.6038 19.7511 19.5451 19.7511 19.4731C19.7511 19.4012 19.6924 19.3425 19.6204 19.3425C19.5485 19.3406 19.4898 19.4012 19.4898 19.4731Z" fill="#F55B5D"/>
<path d="M19.7946 18.8313C19.7946 18.9033 19.8533 18.962 19.9253 18.962C19.9972 18.962 20.0559 18.9033 20.0559 18.8313C20.0559 18.7594 19.9972 18.7007 19.9253 18.7007C19.8533 18.7007 19.7946 18.7594 19.7946 18.8313Z" fill="#F55B5D"/>
<path d="M27.283 29.5725C23.1497 28.3447 20.2311 26.1737 17.5407 25.1958C14.8504 26.1737 11.9318 28.3447 7.79846 29.5725C1.23986 31.5197 -0.398707 22.7596 4.28228 19.7042C8.4026 17.016 7.91146 16.5661 8.98935 11.9569C9.05889 11.657 9.13495 11.3419 9.22188 11.005C9.31533 10.6356 9.41747 10.2444 9.53264 9.82717C9.60001 9.58377 9.67172 9.34907 9.74561 9.12089C10.8713 5.66122 14.0963 3.47719 17.5429 3.59671C20.9896 3.47719 24.2145 5.66122 25.3402 9.12089C25.4141 9.3469 25.4836 9.58377 25.5532 9.82717C25.6684 10.2444 25.7727 10.6356 25.864 11.005C25.9487 11.3419 26.0248 11.6591 26.0965 11.9569C27.1744 16.5683 26.6832 17.016 30.8035 19.7042C35.4824 22.7575 33.8416 31.5175 27.283 29.5725Z" fill="#5A184A"/>
<path d="M34.4783 34.1265H2.09387C2.09387 34.1265 2.5285 32.0663 3.14786 29.9975C3.76721 27.9286 5.0472 27.0616 6.70532 26.6378C7.17255 26.5183 8.02878 26.2684 9.01756 25.975C9.57607 25.8076 10.1802 25.6251 10.7778 25.4447C12.8641 24.8102 14.9003 24.1778 14.9003 24.1778L18.2687 23.9083L18.2883 23.9061L18.3078 23.9083L21.3459 24.1517C21.3459 24.1517 23.1735 24.6993 25.1685 25.2904C27.0418 25.8424 29.065 26.4335 29.8669 26.64C31.525 27.0659 32.805 27.9308 33.4243 29.9997C34.0437 32.0663 34.4783 34.1265 34.4783 34.1265Z" fill="#E9356E"/>
<path d="M5.65124 29.7399C5.6143 29.7399 5.57953 29.729 5.5491 29.7051L4.69071 29.0336C4.61899 28.9771 4.60595 28.8728 4.66246 28.7989C4.71896 28.7272 4.82327 28.7141 4.89716 28.7706L5.75555 29.4421C5.82727 29.4986 5.84031 29.603 5.78381 29.6769C5.74904 29.7181 5.70123 29.7399 5.65124 29.7399Z" fill="#C4205C"/>
<path d="M5.65124 33.3669C5.6143 33.3669 5.57953 33.356 5.5491 33.3321L4.69071 32.6606C4.61899 32.6041 4.60595 32.4998 4.66246 32.4259C4.71896 32.3542 4.82327 32.3412 4.89716 32.3977L5.75555 33.0692C5.82727 33.1257 5.84031 33.23 5.78381 33.3039C5.74904 33.3452 5.70123 33.3669 5.65124 33.3669Z" fill="#C4205C"/>
<path d="M10.6626 28.4099C10.6322 28.4099 10.6018 28.4012 10.5757 28.386C10.4975 28.3382 10.4735 28.2338 10.5214 28.1556L11.0929 27.2277C11.1407 27.1494 11.245 27.1255 11.3233 27.1733C11.4015 27.2211 11.4254 27.3255 11.3776 27.4037L10.806 28.3316C10.7734 28.3816 10.7191 28.4099 10.6626 28.4099Z" fill="#C4205C"/>
<path d="M7.91347 32.0239C7.88304 32.0239 7.85262 32.0152 7.82654 32C7.74831 31.9522 7.7244 31.8479 7.77221 31.7696L8.34375 30.8417C8.39156 30.7634 8.49587 30.7395 8.57411 30.7873C8.65234 30.8352 8.67625 30.9395 8.62844 31.0177L8.0569 31.9456C8.0243 31.9956 7.96997 32.0239 7.91347 32.0239Z" fill="#C4205C"/>
<path d="M9.13696 27.4733C9.14783 27.5015 9.15 27.5319 9.14348 27.5645C9.1261 27.6558 9.037 27.7123 8.9479 27.6949L7.8787 27.4798C7.78743 27.4624 7.73093 27.3733 7.74831 27.2842C7.7657 27.1929 7.8548 27.1364 7.9439 27.1538L9.01309 27.3689C9.07177 27.3798 9.1174 27.4211 9.13696 27.4733Z" fill="#C4205C"/>
<path d="M12.8184 31.5458C12.7815 31.5458 12.7467 31.5349 12.7163 31.511L11.8579 30.8395C11.7862 30.783 11.7731 30.6787 11.8296 30.6048C11.8861 30.5331 11.9904 30.52 12.0643 30.5765L12.9227 31.248C12.9944 31.3045 13.0075 31.4088 12.951 31.4827C12.9162 31.524 12.8684 31.5458 12.8184 31.5458Z" fill="#C4205C"/>
<path d="M9.74766 33.3408C9.72593 33.3277 9.70637 33.3082 9.69334 33.2843C9.6477 33.2039 9.67378 33.1017 9.75418 33.0561L10.6995 32.5128C10.7799 32.4672 10.8821 32.4932 10.9277 32.5736C10.9733 32.654 10.9473 32.7562 10.8668 32.8018L9.92152 33.3451C9.86502 33.3755 9.79982 33.3712 9.74766 33.3408Z" fill="#C4205C"/>
<path d="M24.6229 29.7399C24.586 29.7399 24.5512 29.729 24.5208 29.7051L23.6624 29.0336C23.5907 28.9771 23.5776 28.8728 23.6341 28.7989C23.6906 28.7272 23.7949 28.7141 23.8688 28.7706L24.7272 29.4421C24.799 29.4986 24.812 29.603 24.7555 29.6769C24.7207 29.7181 24.6729 29.7399 24.6229 29.7399Z" fill="#C4205C"/>
<path d="M24.6229 33.3669C24.586 33.3669 24.5512 33.356 24.5208 33.3321L23.6624 32.6606C23.5907 32.6041 23.5776 32.4998 23.6341 32.4259C23.6906 32.3542 23.7949 32.3412 23.8688 32.3977L24.7272 33.0692C24.799 33.1257 24.812 33.23 24.7555 33.3039C24.7207 33.3452 24.6729 33.3669 24.6229 33.3669Z" fill="#C4205C"/>
<path d="M29.6364 28.4099C29.606 28.4099 29.5756 28.4012 29.5495 28.386C29.4713 28.3382 29.4474 28.2338 29.4952 28.1556L30.0667 27.2277C30.1145 27.1494 30.2188 27.1255 30.2971 27.1733C30.3753 27.2211 30.3992 27.3255 30.3514 27.4037L29.7799 28.3316C29.7451 28.3816 29.6908 28.4099 29.6364 28.4099Z" fill="#C4205C"/>
<path d="M26.8874 32.0239C26.857 32.0239 26.8266 32.0152 26.8005 32C26.7222 31.9522 26.6983 31.8479 26.7461 31.7696L27.3177 30.8417C27.3655 30.7634 27.4698 30.7395 27.548 30.7873C27.6263 30.8352 27.6502 30.9395 27.6024 31.0177L27.0308 31.9456C26.9982 31.9956 26.9439 32.0239 26.8874 32.0239Z" fill="#C4205C"/>
<path d="M32.7376 33.5581C32.7071 33.5581 32.6767 33.5494 32.6506 33.5342C32.5724 33.4864 32.5485 33.3821 32.5963 33.3039L33.1679 32.3759C33.2157 32.2977 33.32 32.2738 33.3982 32.3216C33.4764 32.3694 33.5003 32.4737 33.4525 32.5519L32.881 33.4799C32.8484 33.5299 32.7941 33.5581 32.7376 33.5581Z" fill="#C4205C"/>
<path d="M28.1087 27.4733C28.1196 27.5015 28.1217 27.5319 28.1152 27.5645C28.0978 27.6558 28.0087 27.7123 27.9196 27.6949L26.8504 27.4798C26.7592 27.4624 26.7027 27.3733 26.7201 27.2842C26.7374 27.1929 26.8265 27.1364 26.9156 27.1538L27.9848 27.3689C28.0435 27.3798 28.0891 27.4211 28.1087 27.4733Z" fill="#C4205C"/>
<path d="M31.79 30.8569C31.7531 30.8569 31.7183 30.846 31.6879 30.8221L30.8295 30.1506C30.7578 30.0941 30.7447 29.9898 30.8012 29.9159C30.8578 29.8442 30.9621 29.8311 31.036 29.8876L31.8943 30.5592C31.9661 30.6157 31.9791 30.72 31.9226 30.7939C31.89 30.8351 31.84 30.8569 31.79 30.8569Z" fill="#C4205C"/>
<path d="M28.7215 33.3408C28.6997 33.3277 28.6802 33.3082 28.6672 33.2843C28.6215 33.2039 28.6476 33.1017 28.728 33.0561L29.6733 32.5128C29.7537 32.4672 29.8559 32.4932 29.9015 32.5736C29.9471 32.654 29.9211 32.7562 29.8407 32.8018L28.8953 33.3451C28.8388 33.3755 28.7715 33.3712 28.7215 33.3408Z" fill="#C4205C"/>
<path d="M18.273 30.3701C18.2425 30.3701 18.2121 30.3614 18.186 30.3462C18.1078 30.2984 18.0839 30.1941 18.1317 30.1158L18.7032 29.1879C18.7511 29.1097 18.8554 29.0858 18.9336 29.1336C19.0118 29.1814 19.0357 29.2857 18.9879 29.3639L18.4164 30.2919C18.3838 30.3418 18.3295 30.3701 18.273 30.3701Z" fill="#C4205C"/>
<path d="M15.6239 33.2843C15.5934 33.2843 15.563 33.2756 15.5369 33.2604C15.4587 33.2126 15.4348 33.1083 15.4826 33.03L16.0541 32.1021C16.1019 32.0239 16.2063 32 16.2845 32.0478C16.3627 32.0956 16.3866 32.1999 16.3388 32.2781L15.7673 33.2061C15.7347 33.2561 15.6804 33.2843 15.6239 33.2843Z" fill="#C4205C"/>
<path d="M15.8325 29.7898C15.8433 29.8181 15.8455 29.8485 15.839 29.8811C15.8216 29.9724 15.7325 30.0289 15.6434 30.0115L14.5742 29.7964C14.4829 29.779 14.4264 29.6899 14.4438 29.6008C14.4612 29.5095 14.5503 29.453 14.6394 29.4704L15.7086 29.6855C15.7673 29.6964 15.8129 29.7377 15.8325 29.7898Z" fill="#C4205C"/>
<path d="M22.0977 30.746C22.0608 30.746 22.026 30.7352 21.9956 30.7113L21.1372 30.0398C21.0655 29.9833 21.0524 29.8789 21.1089 29.8051C21.1654 29.7333 21.2697 29.7203 21.3436 29.7768L22.202 30.4483C22.2737 30.5048 22.2868 30.6091 22.2303 30.683C22.1955 30.7243 22.1477 30.746 22.0977 30.746Z" fill="#C4205C"/>
<path d="M18.838 33.3799C18.8163 33.3669 18.7967 33.3473 18.7837 33.3234C18.738 33.243 18.7641 33.1409 18.8445 33.0952L19.7898 32.5519C19.8702 32.5063 19.9724 32.5324 20.018 32.6128C20.0637 32.6932 20.0376 32.7953 19.9572 32.841L19.0119 33.3843C18.9553 33.4169 18.8902 33.4125 18.838 33.3799Z" fill="#C4205C"/>
<path d="M18.3059 23.9005V23.9049L18.2883 23.9027L18.3059 23.9005Z" fill="#5D46C2"/>
<path d="M18.2885 23.9027L18.2687 23.9049V23.9005L18.2885 23.9027Z" fill="#5D46C2"/>
<path d="M21.2916 24.9741C21.2916 24.9741 20.4527 26.5431 18.1101 26.5431C15.8456 26.5431 14.8938 24.8959 14.8938 24.8959L15.0329 23.768L15.0568 23.579L15.2741 21.8013L20.8765 21.9578L20.97 22.6336L21.0004 22.8553L21.2916 24.9741Z" fill="#FF8881"/>
<path d="M23.4886 27.4015C22.0956 29.1966 19.0706 28.2295 18.0883 26.9169C17.106 28.2295 14.0832 29.1944 12.688 27.4015C11.345 25.6739 14.9828 24.1679 14.9828 24.1679C15.3545 25.8412 17.3951 26.378 18.0883 26.5084C18.7815 26.378 20.8091 25.8434 21.1807 24.1679C21.1785 24.1679 24.8294 25.6717 23.4886 27.4015Z" fill="#F5EFFF"/>
<path d="M20.9655 22.6315C19.6964 23.7072 17.6428 24.1157 15.0306 23.7658L15.0545 23.5768L15.2719 21.7991L20.8743 21.9556L20.9655 22.6315Z" fill="#19274B"/>
<path d="M13.1683 17.1768C11.9144 18.9262 9.21751 17.744 9.40006 15.4231C9.56739 13.3173 11.9188 13.6519 11.9188 13.6519L13.1683 17.1768Z" fill="#F55B5D"/>
<path d="M11.8667 18.0852C11.8667 18.5155 11.5189 18.8632 11.0887 18.8632C10.6584 18.8632 10.3107 18.5155 10.3107 18.0852C10.3107 17.6549 10.6584 17.3072 11.0887 17.3072C11.5189 17.3072 11.8667 17.6549 11.8667 18.0852Z" fill="#FFAC32"/>
<path d="M12.0144 17.2202C11.9383 17.2202 11.871 17.1681 11.8514 17.092C11.608 16.0967 10.5714 15.1644 10.5627 15.1557C10.4932 15.0949 10.4867 14.9884 10.5497 14.9189C10.6105 14.8493 10.717 14.8428 10.7866 14.9058C10.8322 14.9471 11.9101 15.9142 12.1796 17.0116C12.2013 17.1007 12.147 17.192 12.0579 17.2137C12.0405 17.2181 12.0274 17.2202 12.0144 17.2202Z" fill="#D1373F"/>
<path d="M11.5841 16.275C11.5667 16.275 11.5493 16.2728 11.532 16.2663C11.0734 16.112 10.6366 16.2054 10.6323 16.2076C10.5432 16.2271 10.4541 16.1706 10.4323 16.0815C10.4128 15.9924 10.4693 15.9033 10.5584 15.8816C10.5801 15.8773 11.0886 15.7664 11.6384 15.9512C11.7254 15.9794 11.7732 16.075 11.7449 16.1619C11.7188 16.2293 11.6537 16.275 11.5841 16.275Z" fill="#D1373F"/>
<path d="M22.4456 17.1768C23.6995 18.9262 26.3964 17.744 26.2138 15.4231C26.0465 13.3173 23.6951 13.6519 23.6951 13.6519L22.4456 17.1768Z" fill="#F55B5D"/>
<path d="M25.3729 18.0852C25.3729 18.5155 25.0252 18.8632 24.5949 18.8632C24.1646 18.8632 23.8169 18.5155 23.8169 18.0852C23.8169 17.6549 24.1646 17.3072 24.5949 17.3072C25.0252 17.3072 25.3729 17.6549 25.3729 18.0852Z" fill="#FFAC32"/>
<path d="M23.5995 17.2203C23.5864 17.2203 23.5734 17.2181 23.5604 17.2159C23.4713 17.1942 23.4148 17.1029 23.4387 17.0138C23.7081 15.9164 24.786 14.9472 24.8317 14.9081C24.9012 14.8472 25.0055 14.8537 25.0685 14.9211C25.1294 14.9906 25.1229 15.0949 25.0555 15.158C25.0446 15.1667 24.0102 16.0968 23.7668 17.0943C23.7429 17.1703 23.6734 17.2203 23.5995 17.2203Z" fill="#D1373F"/>
<path d="M24.0298 16.2749C23.9603 16.2749 23.8951 16.2315 23.8712 16.1598C23.8429 16.0728 23.8886 15.9772 23.9777 15.949C24.5275 15.7642 25.036 15.8751 25.0577 15.8794C25.1468 15.899 25.2055 15.9881 25.1838 16.0794C25.1642 16.1685 25.0751 16.225 24.9838 16.2054C24.9795 16.2054 24.5427 16.112 24.0842 16.2641C24.0668 16.2706 24.0472 16.2749 24.0298 16.2749Z" fill="#D1373F"/>
<path d="M11.4211 11.092C11.4211 11.092 10.8083 14.8863 12.3947 18.5981C13.8311 21.9621 15.7435 23.0096 17.7798 23.0422C20.0942 23.0791 24.9403 21.7405 24.1732 10.7595C23.6538 3.34031 12.0339 3.60326 11.4211 11.092Z" fill="#FF8881"/>
<path d="M11.0886 12.7696C11.0886 12.7696 11.2103 15.121 12.1861 15.0319C13.1618 14.9428 12.6881 9.64896 12.6881 9.64896C12.6881 9.64896 13.5573 10.9311 15.1437 10.792C16.7302 10.653 15.2915 8.59063 15.2915 8.59063C15.2915 8.59063 16.7541 10.6247 18.0949 10.5421C19.4336 10.4595 18.0949 7.94955 18.0949 7.94955C18.0949 7.94955 19.8443 10.792 21.1026 10.7095C22.3608 10.6269 21.296 8.25814 21.296 8.25814C21.296 8.25814 22.2978 10.879 23.254 11.0724C23.254 11.0724 23.0128 14.9319 24.0363 14.7689C25.0577 14.6059 24.6796 10.2922 24.2602 8.9818C23.8407 7.67138 21.5872 4.38339 17.2517 4.80064C12.9097 5.21789 11.1669 7.61488 11.0886 12.7696Z" fill="#5A184A"/>
<path d="M13.5812 13.0152C13.5812 13.0152 14.4679 11.7808 15.9956 11.6222C16.2434 11.5961 16.4628 11.7874 16.4781 12.0351V12.0394C16.4933 12.2915 16.2933 12.5045 16.0413 12.5088C15.4675 12.5154 14.4614 12.5979 13.5812 13.0152Z" fill="#5A184A"/>
<path d="M22.1522 13.0152C22.1522 13.0152 21.2655 11.7808 19.7378 11.6222C19.49 11.5961 19.2705 11.7874 19.2553 12.0351V12.0394C19.2401 12.2915 19.44 12.5045 19.6921 12.5088C20.2659 12.5154 21.2742 12.5979 22.1522 13.0152Z" fill="#5A184A"/>
<path d="M18.0666 21.0733C17.5907 21.0733 17.2126 20.9059 17.1887 20.8951C17.1192 20.8625 17.0866 20.7799 17.1192 20.7103C17.1517 20.6408 17.2343 20.6082 17.3039 20.6408C17.3169 20.6451 18.1731 21.0211 18.862 20.5691C18.9272 20.5278 19.012 20.5452 19.0554 20.6082C19.0967 20.6734 19.0793 20.7582 19.0163 20.8016C18.699 21.0081 18.3644 21.0733 18.0666 21.0733Z" fill="#F55B5D"/>
<path d="M18.5599 17.5224C18.5556 17.5224 18.5534 17.5224 18.549 17.5224L17.5298 17.4398C17.4538 17.4333 17.3951 17.3659 17.4016 17.2898C17.4081 17.2138 17.4755 17.1573 17.5516 17.1616L18.4034 17.2311L18.1383 14.6407C18.1296 14.5647 18.1861 14.4951 18.2622 14.4886C18.3383 14.4799 18.4078 14.5364 18.4143 14.6125L18.6968 17.3702C18.7012 17.4115 18.686 17.4528 18.6577 17.4811C18.6338 17.5071 18.5969 17.5224 18.5599 17.5224Z" fill="#F55B5D"/>
<path d="M15.8804 18.6328C17.1343 18.8284 18.41 18.9132 20.1181 18.5742C20.1181 18.5742 19.9703 20.3996 17.9428 20.4061C16.2194 20.4127 15.8804 18.6328 15.8804 18.6328Z" fill="#F5EFFF"/>
<path d="M15.7805 14.6255C15.7805 15.108 15.561 15.5013 15.2894 15.5013C15.0177 15.5013 14.7982 15.1101 14.7982 14.6255C14.7982 14.1431 15.0177 13.7497 15.2894 13.7497C15.561 13.7519 15.7805 14.1431 15.7805 14.6255Z" fill="#19274B"/>
<path d="M20.5071 15.5013C20.7784 15.5013 20.9983 15.1092 20.9983 14.6255C20.9983 14.1418 20.7784 13.7497 20.5071 13.7497C20.2359 13.7497 20.016 14.1418 20.016 14.6255C20.016 15.1092 20.2359 15.5013 20.5071 15.5013Z" fill="#19274B"/>
<path d="M13.9876 16.4205C13.9876 16.5031 13.9203 16.5705 13.8377 16.5705C13.7551 16.5705 13.6877 16.5031 13.6877 16.4205C13.6877 16.338 13.7551 16.2706 13.8377 16.2706C13.9203 16.2706 13.9876 16.338 13.9876 16.4205Z" fill="#F55B5D"/>
<path d="M14.5701 16.9334C14.6529 16.9334 14.72 16.8663 14.72 16.7835C14.72 16.7006 14.6529 16.6335 14.5701 16.6335C14.4872 16.6335 14.4201 16.7006 14.4201 16.7835C14.4201 16.8663 14.4872 16.9334 14.5701 16.9334Z" fill="#F55B5D"/>
<path d="M13.9877 17.3072C13.9877 17.3898 13.9203 17.4571 13.8378 17.4571C13.7552 17.4571 13.6878 17.3898 13.6878 17.3072C13.6878 17.2246 13.7552 17.1572 13.8378 17.1572C13.9203 17.1551 13.9877 17.2246 13.9877 17.3072Z" fill="#F55B5D"/>
<path d="M15.1417 17.4571C15.1417 17.5397 15.0743 17.6071 14.9917 17.6071C14.9092 17.6071 14.8418 17.5397 14.8418 17.4571C14.8418 17.3746 14.9092 17.3072 14.9917 17.3072C15.0743 17.3072 15.1417 17.3746 15.1417 17.4571Z" fill="#F55B5D"/>
<path d="M15.9109 17.3072C15.9109 17.3898 15.8436 17.4571 15.761 17.4571C15.6784 17.4571 15.611 17.3898 15.611 17.3072C15.611 17.2246 15.6784 17.1572 15.761 17.1572C15.8436 17.1551 15.9109 17.2246 15.9109 17.3072Z" fill="#F55B5D"/>
<path d="M15.561 16.5705C15.561 16.6531 15.4936 16.7204 15.4111 16.7204C15.3285 16.7204 15.2611 16.6531 15.2611 16.5705C15.2611 16.4879 15.3285 16.4205 15.4111 16.4205C15.4936 16.4205 15.561 16.4879 15.561 16.5705Z" fill="#F55B5D"/>
<path d="M22.1022 16.4205C22.1022 16.5031 22.1695 16.5705 22.2521 16.5705C22.3347 16.5705 22.4021 16.5031 22.4021 16.4205C22.4021 16.338 22.3347 16.2706 22.2521 16.2706C22.1695 16.2706 22.1022 16.338 22.1022 16.4205Z" fill="#F55B5D"/>
<path d="M21.5198 16.9334C21.6026 16.9334 21.6697 16.8663 21.6697 16.7835C21.6697 16.7006 21.6026 16.6335 21.5198 16.6335C21.4369 16.6335 21.3698 16.7006 21.3698 16.7835C21.3698 16.8663 21.4369 16.9334 21.5198 16.9334Z" fill="#F55B5D"/>
<path d="M22.1022 17.3072C22.1022 17.3898 22.1695 17.4571 22.2521 17.4571C22.3347 17.4571 22.4021 17.3898 22.4021 17.3072C22.4021 17.2246 22.3347 17.1572 22.2521 17.1572C22.1695 17.1551 22.1022 17.2246 22.1022 17.3072Z" fill="#F55B5D"/>
<path d="M20.9483 17.4571C20.9483 17.5397 21.0157 17.6071 21.0983 17.6071C21.1808 17.6071 21.2482 17.5397 21.2482 17.4571C21.2482 17.3746 21.1808 17.3072 21.0983 17.3072C21.0157 17.3072 20.9483 17.3746 20.9483 17.4571Z" fill="#F55B5D"/>
<path d="M20.179 17.3072C20.179 17.3898 20.2463 17.4571 20.3289 17.4571C20.4115 17.4571 20.4789 17.3898 20.4789 17.3072C20.4789 17.2246 20.4115 17.1572 20.3289 17.1572C20.2463 17.1551 20.179 17.2246 20.179 17.3072Z" fill="#F55B5D"/>
<path d="M20.5289 16.5705C20.5289 16.6531 20.5962 16.7204 20.6788 16.7204C20.7614 16.7204 20.8288 16.6531 20.8288 16.5705C20.8288 16.4879 20.7614 16.4205 20.6788 16.4205C20.5962 16.4205 20.5289 16.4879 20.5289 16.5705Z" fill="#F55B5D"/>
<path d="M15.0937 17.4919C13.7398 17.4919 12.6359 16.3901 12.6359 15.0341C12.6359 13.6802 13.7377 12.5762 15.0937 12.5762C16.4476 12.5762 17.5516 13.678 17.5516 15.0341C17.5494 16.3901 16.4476 17.4919 15.0937 17.4919ZM15.0937 12.8001C13.8615 12.8001 12.8597 13.8019 12.8597 15.0341C12.8597 16.2663 13.8615 17.2681 15.0937 17.2681C16.3259 17.2681 17.3277 16.2663 17.3277 15.0341C17.3277 13.8019 16.3237 12.8001 15.0937 12.8001Z" fill="#F5EFFF"/>
<path d="M21.009 17.4919C19.6551 17.4919 18.5511 16.3901 18.5511 15.0341C18.5511 13.6802 19.6529 12.5762 21.009 12.5762C22.3629 12.5762 23.4668 13.678 23.4668 15.0341C23.4647 16.3901 22.3629 17.4919 21.009 17.4919ZM21.009 12.8001C19.7768 12.8001 18.775 13.8019 18.775 15.0341C18.775 16.2663 19.7768 17.2681 21.009 17.2681C22.2412 17.2681 23.243 16.2663 23.243 15.0341C23.243 13.8019 22.2412 12.8001 21.009 12.8001Z" fill="#F5EFFF"/>
<path d="M23.2148 14.3495C23.1887 14.3495 23.1605 14.3408 23.1387 14.3213C23.0931 14.28 23.0909 14.2083 23.1322 14.1648C23.1626 14.1322 23.8885 13.3477 24.9772 13.5281C25.0381 13.5389 25.0794 13.5954 25.0685 13.6563C25.0576 13.7171 25.0011 13.7584 24.9403 13.7475C23.971 13.5889 23.3039 14.3082 23.2974 14.3147C23.2756 14.3365 23.2452 14.3495 23.2148 14.3495Z" fill="#F5EFFF"/>
<path d="M12.9032 14.3039C12.8749 14.3039 12.8445 14.293 12.8228 14.2691C12.8098 14.2561 11.9318 13.3781 10.8496 13.741C10.7909 13.7606 10.7279 13.7302 10.7083 13.6715C10.6887 13.6128 10.7192 13.5498 10.7778 13.5302C11.9992 13.1217 12.9423 14.0735 12.9836 14.1148C13.0271 14.1583 13.0249 14.23 12.9814 14.2735C12.9597 14.293 12.9315 14.3039 12.9032 14.3039Z" fill="#F5EFFF"/>
<path d="M17.4386 14.8102C17.4364 14.8102 17.4343 14.8102 17.4321 14.8102C17.3713 14.8059 17.3234 14.7537 17.3278 14.6907C17.3408 14.4951 17.5082 14.1257 18.0515 14.1257C18.5947 14.1257 18.7621 14.4951 18.7751 14.6907C18.7795 14.7516 18.7317 14.8059 18.6708 14.8102C18.61 14.8146 18.5556 14.7668 18.5513 14.7059C18.5491 14.6712 18.5078 14.3495 18.0493 14.3495C17.5777 14.3495 17.5495 14.6907 17.5495 14.7059C17.5451 14.7646 17.4973 14.8102 17.4386 14.8102Z" fill="#F5EFFF"/>
</g>
</g>
</g>
</svg>
