<svg width="35" height="35" viewBox="0 0 35 35" fill="none" xmlns="http://www.w3.org/2000/svg">
<circle cx="17.0729" cy="17.0834" r="17.0417" fill="#EFF0F6"/>
<path d="M23.6932 16.7811C23.0708 16.0543 22.788 15.4244 22.788 14.3542V13.9904C22.788 12.5959 22.467 11.6974 21.7692 10.7989C20.6937 9.4035 18.8831 8.5625 17.1107 8.5625H17.0353C15.3001 8.5625 13.5463 9.36488 12.4521 10.7036C11.7162 11.6201 11.358 12.5572 11.358 13.9904V14.3542C11.358 15.4244 11.0938 16.0543 10.4527 16.7811C9.981 17.3166 9.83026 18.0049 9.83026 18.7498C9.83026 19.4955 10.075 20.2018 10.5662 20.7759C11.2072 21.4641 12.1125 21.9035 13.0373 21.9799C14.3762 22.1326 15.715 22.1901 17.0734 22.1901C18.4309 22.1901 19.7698 22.094 21.1095 21.9799C22.0334 21.9035 22.9387 21.4641 23.5798 20.7759C24.0701 20.2018 24.3157 19.4955 24.3157 18.7498C24.3157 18.0049 24.1649 17.3166 23.6932 16.7811" fill="#D6D7E3"/>
<path opacity="0.4" d="M18.7846 23.2425C18.3586 23.1515 15.763 23.1515 15.337 23.2425C14.9729 23.3266 14.5791 23.5222 14.5791 23.9513C14.6003 24.3607 14.8399 24.722 15.1719 24.9511L15.1711 24.9519C15.6004 25.2866 16.1043 25.4994 16.6319 25.5758C16.913 25.6144 17.1993 25.6127 17.4906 25.5758C18.0173 25.4994 18.5212 25.2866 18.9506 24.9519L18.9497 24.9511C19.2817 24.722 19.5213 24.3607 19.5425 23.9513C19.5425 23.5222 19.1487 23.3266 18.7846 23.2425" fill="#D6D7E3"/>
</svg>
