<svg width="21" height="21" viewBox="0 0 21 21" fill="none" xmlns="http://www.w3.org/2000/svg">
<path d="M10.2232 12.4663C7.28354 12.4663 4.80316 12.9467 4.80316 14.8006C4.80316 16.6553 7.29956 17.1187 10.2232 17.1187C13.1629 17.1187 15.6433 16.6384 15.6433 14.7845C15.6433 12.9298 13.1469 12.4663 10.2232 12.4663" fill="white" fill-opacity="0.5"/>
<path opacity="0.4" d="M10.2233 10.7C12.2138 10.7 13.8099 9.09474 13.8099 7.09272C13.8099 5.08994 12.2138 3.48542 10.2233 3.48542C8.2327 3.48542 6.6366 5.08994 6.6366 7.09272C6.6366 9.09474 8.2327 10.7 10.2233 10.7" fill="white" fill-opacity="0.5"/>
<path opacity="0.4" d="M18.0104 7.93266C18.5254 5.90686 17.0155 4.08748 15.0928 4.08748C14.8838 4.08748 14.6839 4.1105 14.4886 4.14963C14.4626 4.15577 14.4336 4.16882 14.4184 4.19184C14.4008 4.221 14.4138 4.26013 14.4329 4.28545C15.0104 5.10038 15.3423 6.09256 15.3423 7.15764C15.3423 8.17822 15.0379 9.12973 14.5038 9.91933C14.4489 10.0007 14.4977 10.1104 14.5946 10.1273C14.7289 10.1511 14.8662 10.1633 15.0066 10.1672C16.4066 10.204 17.6632 9.29778 18.0104 7.93266" fill="white" fill-opacity="0.5"/>
<path d="M19.4771 12.7024C19.2207 12.1529 18.602 11.7762 17.6612 11.5912C17.2172 11.4823 16.0155 11.3288 14.8978 11.3495C14.881 11.3518 14.8719 11.3633 14.8703 11.371C14.8681 11.3817 14.8726 11.4002 14.8948 11.4117C15.4113 11.6687 17.4079 12.7868 17.1569 15.1448C17.1462 15.2469 17.2279 15.3351 17.3294 15.3198C17.8207 15.2492 19.0849 14.976 19.4771 14.125C19.6938 13.6753 19.6938 13.1528 19.4771 12.7024" fill="white" fill-opacity="0.5"/>
<path opacity="0.4" d="M6.04448 4.14987C5.84992 4.10996 5.64926 4.08771 5.44021 4.08771C3.51756 4.08771 2.00767 5.9071 2.52343 7.9329C2.86981 9.29801 4.1264 10.2042 5.52643 10.1674C5.66681 10.1636 5.80491 10.1505 5.93842 10.1275C6.03532 10.1106 6.08415 10.0009 6.02922 9.91956C5.49515 9.12919 5.19073 8.17845 5.19073 7.15787C5.19073 6.09203 5.52338 5.09984 6.10093 4.28569C6.11925 4.26036 6.13298 4.22123 6.11467 4.19207C6.09941 4.16828 6.07118 4.15601 6.04448 4.14987" fill="white" fill-opacity="0.5"/>
<path d="M2.8719 11.591C1.93117 11.7759 1.31317 12.1527 1.05682 12.7021C0.839377 13.1526 0.839377 13.6751 1.05682 14.1256C1.44898 14.9758 2.7132 15.2497 3.20455 15.3195C3.30602 15.3349 3.38689 15.2474 3.37621 15.1446C3.1252 12.7873 5.12186 11.6693 5.63914 11.4122C5.66051 11.3999 5.66509 11.3823 5.6628 11.3708C5.66127 11.3631 5.65288 11.3516 5.63609 11.3501C4.5176 11.3286 3.3167 11.482 2.8719 11.591" fill="white" fill-opacity="0.5"/>
</svg>
