<svg width="48" height="48" viewBox="0 0 48 48" fill="none" xmlns="http://www.w3.org/2000/svg">
<mask id="mask0_2_2529" style="mask-type:alpha" maskUnits="userSpaceOnUse" x="3" y="3" width="42" height="42">
<rect x="3.52081" y="3.52081" width="40.9" height="40.9" rx="20.45" fill="#C4C4C4"/>
</mask>
<g mask="url(#mask0_2_2529)">
<mask id="mask1_2_2529" style="mask-type:alpha" maskUnits="userSpaceOnUse" x="3" y="3" width="42" height="42">
<rect x="3.52081" y="3.52081" width="40.9" height="40.9" fill="#C4C4C4"/>
</mask>
<g mask="url(#mask1_2_2529)">
<rect x="3.52081" y="3.52081" width="40.9" height="40.9" fill="#F5EFFF"/>
<path d="M21.555 3.66861C21.555 3.66861 16.3946 3.98596 14.2875 8.6918C12.1319 13.5063 13.5757 16.2223 10.7882 18.9812C8.00071 21.7401 7.13158 25.5768 10.1992 27.884C13.8501 30.6314 18.2329 27.4494 21.7151 28.8389C29.926 32.1181 39.8323 28.1098 37.5995 22.0717C36.5331 19.187 34.5861 20.0962 33.5912 12.194C32.9823 7.3338 29.4657 2.61938 21.555 3.66861Z" fill="#19274B"/>
<path d="M45.2729 44.0971H2.66876C2.66876 44.0971 3.24056 41.3868 4.05536 38.6651C4.87016 35.9434 6.55408 34.8027 8.73547 34.2452C9.35014 34.0879 10.4766 33.7591 11.7774 33.3732C12.5122 33.153 13.3069 32.9129 14.0932 32.6756C16.8378 31.8408 19.5166 31.0088 19.5166 31.0088L23.948 30.6543L23.9737 30.6515L23.9994 30.6543L27.9963 30.9745C27.9963 30.9745 30.4006 31.695 33.0252 32.4726C35.4896 33.1988 38.1513 33.9764 39.2062 34.248C41.3876 34.8084 43.0715 35.9462 43.8863 38.668C44.7011 41.3897 45.2729 44.0971 45.2729 44.0971Z" fill="#FFAC32"/>
<path d="M12.5493 40.2775C12.4578 41.5669 12.2519 42.8306 11.5887 44.0971H2.67157C2.67157 44.0971 3.24336 41.3868 4.05817 38.6651C4.87297 35.9434 6.55689 34.8026 8.73827 34.2452C9.35295 34.0879 10.4794 33.7591 11.7802 33.3732C12.3977 34.917 12.7179 37.8846 12.5493 40.2775Z" fill="#FF8881"/>
<path d="M35.3952 40.2775C35.4867 41.5669 35.6925 42.8306 36.3558 44.0971H45.2729C45.2729 44.0971 44.7011 41.3868 43.8863 38.6651C43.0715 35.9434 41.3876 34.8026 39.2062 34.2452C38.5915 34.0879 37.4651 33.7591 36.1643 33.3732C35.5467 34.917 35.2265 37.8846 35.3952 40.2775Z" fill="#FF8881"/>
<path d="M33.0252 32.4697C32.4591 35.5117 30.5265 41.3382 24.0195 41.6384C16.8063 41.9701 14.6421 35.1686 14.0932 32.6727C16.8378 31.8379 19.5166 31.006 19.5166 31.006L23.948 30.6514L23.9738 30.6486L23.9995 30.6514L27.9963 30.9717C27.9963 30.9717 30.3978 31.695 33.0252 32.4697Z" fill="#FF8881"/>
<path d="M23.9966 36.6867C21.1119 36.6867 19.4537 35.2315 18.5675 34.0107C17.6154 32.6985 17.3438 31.3976 17.3352 31.3433C17.3038 31.1832 17.4067 31.0288 17.564 30.9974C17.7241 30.9659 17.8784 31.0689 17.9099 31.2261C17.9156 31.2518 18.1758 32.4783 19.0563 33.6848C20.2256 35.2887 21.8896 36.1006 23.9966 36.1006C26.1037 36.1006 27.6761 35.2887 28.6653 33.6848C29.4115 32.4812 29.5344 31.269 29.5344 31.2576C29.5487 31.0974 29.6945 30.9774 29.8546 30.9945C30.0147 31.0088 30.1348 31.1518 30.1176 31.3147C30.1119 31.369 29.9804 32.6756 29.1627 33.9964C28.4051 35.2201 26.8927 36.6867 23.9966 36.6867Z" fill="#F5EFFF"/>
<path d="M23.9968 30.6486V30.6515H23.9737L23.9968 30.6486Z" fill="#5D46C2"/>
<path d="M23.974 30.6515H23.948V30.6486L23.974 30.6515Z" fill="#5D46C2"/>
<path d="M27.9248 32.058C27.9248 32.058 26.8213 34.1222 23.7393 34.1222C20.7603 34.1222 19.5081 31.9551 19.5081 31.9551L19.691 30.4713L19.7225 30.2226L20.0084 27.884L27.3788 28.0898L27.5017 28.979L27.5417 29.2706L27.9248 32.058Z" fill="#FF8881"/>
<path d="M27.496 28.979C25.8264 30.3941 23.1247 30.9316 19.6882 30.4713L19.7197 30.2226L20.0056 27.884L27.376 28.0898L27.496 28.979Z" fill="#19274B"/>
<path d="M17.238 21.8001C15.5884 24.1016 12.0404 22.5463 12.2806 19.4929C12.5007 16.7226 15.5941 17.1629 15.5941 17.1629L17.238 21.8001Z" fill="#F55B5D"/>
<path d="M16.2888 22.1232C17.4724 22.6063 18.3072 23.7671 18.3072 25.1222C18.3072 26.9062 16.8549 28.3586 15.0709 28.3586C13.2869 28.3586 11.8345 26.9062 11.8345 25.1222C11.8345 23.6155 12.8695 22.3462 14.2675 21.9859C14.4762 21.9316 14.6964 21.8973 14.9193 21.8887C14.9537 21.9945 14.9794 22.1032 14.988 22.2175C14.8536 22.2204 14.7192 22.2347 14.5877 22.2575C13.2126 22.4863 12.1605 23.6842 12.1605 25.1222C12.1605 26.7261 13.4641 28.0298 15.068 28.0298C16.6719 28.0298 17.9756 26.7261 17.9756 25.1222C17.9756 23.9729 17.3037 22.978 16.3345 22.5063L16.2888 22.1232Z" fill="#F5EFFF"/>
<path d="M15.7199 21.8601C15.6198 21.8601 15.5312 21.7915 15.5055 21.6915C15.1824 20.3792 13.8215 19.1556 13.8101 19.1441C13.7186 19.0641 13.71 18.924 13.793 18.8325C13.873 18.741 14.0131 18.7324 14.1046 18.8154C14.1646 18.8697 15.5827 20.1419 15.9372 21.5857C15.9658 21.7029 15.8943 21.823 15.7771 21.8516C15.7542 21.8573 15.7371 21.8601 15.7199 21.8601Z" fill="#D1373F"/>
<path d="M15.1538 20.6136C15.1309 20.6136 15.1081 20.6108 15.0852 20.6022C14.482 20.3992 13.9073 20.5222 13.9016 20.525C13.7844 20.5507 13.6672 20.4764 13.6386 20.3592C13.6128 20.242 13.6872 20.1248 13.8044 20.0962C13.833 20.0905 14.502 19.9447 15.2253 20.1877C15.3397 20.2248 15.4025 20.3506 15.3654 20.465C15.3311 20.5565 15.2453 20.6136 15.1538 20.6136Z" fill="#D1373F"/>
<path d="M29.4429 21.8001C31.0925 24.1016 34.6405 22.5463 34.4003 19.4929C34.1802 16.7226 31.0868 17.1629 31.0868 17.1629L29.4429 21.8001Z" fill="#F55B5D"/>
<path d="M30.7923 22.1232C29.6087 22.6063 28.7739 23.7671 28.7739 25.1222C28.7739 26.9062 30.2262 28.3586 32.0102 28.3586C33.7942 28.3586 35.2465 26.9062 35.2465 25.1222C35.2465 23.6155 34.2116 22.3462 32.8136 21.9859C32.6049 21.9316 32.3847 21.8973 32.1617 21.8887C32.1274 21.9945 32.1017 22.1032 32.0931 22.2175C32.2275 22.2204 32.3619 22.2347 32.4934 22.2575C33.8685 22.4863 34.9206 23.6842 34.9206 25.1222C34.9206 26.7261 33.6169 28.0298 32.0131 28.0298C30.4092 28.0298 29.1055 26.7261 29.1055 25.1222C29.1055 23.9729 29.7774 22.978 30.7466 22.5063L30.7923 22.1232Z" fill="#F5EFFF"/>
<path d="M30.961 21.8602C30.9438 21.8602 30.9267 21.8573 30.9095 21.8544C30.7923 21.8259 30.718 21.7058 30.7494 21.5886C31.1039 20.1448 32.522 18.8697 32.582 18.8182C32.6735 18.7382 32.8107 18.7468 32.8936 18.8354C32.9737 18.9269 32.9651 19.0641 32.8765 19.147C32.8622 19.1584 31.5013 20.3821 31.1811 21.6943C31.1497 21.7915 31.0582 21.8602 30.961 21.8602Z" fill="#D1373F"/>
<path d="M31.527 20.6137C31.4355 20.6137 31.3498 20.5565 31.3183 20.4621C31.2812 20.3478 31.3412 20.222 31.4584 20.1848C32.1817 19.9418 32.8507 20.0876 32.8793 20.0933C32.9965 20.1191 33.0737 20.2363 33.0451 20.3564C33.0194 20.4736 32.9022 20.5479 32.7821 20.5222C32.7735 20.5193 32.1989 20.3992 31.5985 20.5994C31.5756 20.6108 31.5499 20.6137 31.527 20.6137Z" fill="#D1373F"/>
<path d="M14.9394 13.7979C14.9394 13.7979 14.1332 18.7896 16.2202 23.6727C18.11 28.0984 20.6259 29.4764 23.3047 29.5193C26.3495 29.5679 32.725 27.8068 31.7158 13.3605C31.0325 3.59998 15.7456 3.94306 14.9394 13.7979Z" fill="#FF8881"/>
<path d="M31.527 14.3068C27.4101 14.4126 24.534 13.3119 22.6843 12.1854C23.439 13.2232 24.7198 13.8808 24.7198 13.8808C22.0667 14.5584 20.3485 12.0368 19.6137 10.613C17.6525 13.6721 14.8393 15.1302 14.8393 15.1302C13.1353 4.74073 20.4457 3.87732 26.3809 4.44054C31.9273 4.96944 34.6976 14.2239 31.527 14.3068Z" fill="#19274B"/>
<path d="M17.1779 13.1003C17.1779 13.1003 15.7198 15.9907 16.2001 18.9812C16.6633 21.8658 16.4546 24.6362 15.0308 25.1251C15.0308 25.1251 15.9971 23.7413 15.1166 21.3598C14.236 18.9783 14.0016 15.822 14.5877 14.364C15.1738 12.9059 17.1779 13.1003 17.1779 13.1003Z" fill="#19274B"/>
<path d="M29.7173 13.1003C29.7173 13.1003 31.1753 15.9907 30.695 18.9812C30.2319 21.8658 30.4406 24.6362 31.8644 25.1251C31.8644 25.1251 30.898 23.7413 31.7786 21.3598C32.6591 18.9783 32.8936 15.822 32.3075 14.364C31.7214 12.9059 29.7173 13.1003 29.7173 13.1003Z" fill="#19274B"/>
<path d="M17.7812 16.3281C17.7812 16.3281 18.9476 14.7042 20.9575 14.4955C21.2834 14.4612 21.5722 14.7128 21.5922 15.0387V15.0444C21.6122 15.376 21.3492 15.6562 21.0175 15.6619C20.2628 15.6705 18.9391 15.7791 17.7812 16.3281Z" fill="#19274B"/>
<path d="M29.0569 16.3281C29.0569 16.3281 27.8905 14.7042 25.8806 14.4955C25.5547 14.4612 25.266 14.7128 25.2459 15.0387V15.0444C25.2259 15.376 25.489 15.6562 25.8206 15.6619C26.5754 15.6705 27.9019 15.7791 29.0569 16.3281Z" fill="#19274B"/>
<path d="M23.6821 26.9291C23.056 26.9291 22.5585 26.709 22.5271 26.6947C22.4356 26.6518 22.3927 26.5431 22.4356 26.4517C22.4785 26.3602 22.5843 26.3173 22.6786 26.3602C22.6958 26.3659 23.825 26.8605 24.7285 26.2658C24.8142 26.2115 24.9258 26.2344 24.9829 26.3173C25.0373 26.4031 25.0144 26.5146 24.9315 26.5717C24.5141 26.8433 24.0738 26.9291 23.6821 26.9291Z" fill="#F55B5D"/>
<path d="M24.3311 22.2576C24.3253 22.2576 24.3225 22.2576 24.3168 22.2576L22.9759 22.1489C22.8758 22.1403 22.7987 22.0517 22.8072 21.9516C22.8158 21.8516 22.9044 21.7744 23.0045 21.783L24.1252 21.8745L23.7764 18.4666C23.765 18.3665 23.8393 18.275 23.9394 18.2665C24.0394 18.255 24.1309 18.3293 24.1395 18.4294L24.5112 22.0546C24.5169 22.1089 24.4969 22.1632 24.4597 22.2004C24.4283 22.2375 24.3797 22.2576 24.3311 22.2576Z" fill="#F55B5D"/>
<path d="M20.806 23.7185C22.4556 23.9758 24.1338 24.0873 26.3809 23.6413C26.3809 23.6413 26.1865 26.0428 23.5191 26.0514C21.2491 26.0599 20.806 23.7185 20.806 23.7185Z" fill="#F5EFFF"/>
<path d="M20.6744 18.4466C20.6744 19.0813 20.3857 19.5987 20.0283 19.5987C19.671 19.5987 19.3822 19.0841 19.3822 18.4466C19.3822 17.8119 19.671 17.2944 20.0283 17.2944C20.3857 17.2944 20.6744 17.8119 20.6744 18.4466Z" fill="#19274B"/>
<path d="M27.5388 18.4466C27.5388 19.0813 27.2501 19.5987 26.8927 19.5987C26.5353 19.5987 26.2466 19.0841 26.2466 18.4466C26.2466 17.8119 26.5353 17.2944 26.8927 17.2944C27.2472 17.2944 27.5388 17.8119 27.5388 18.4466Z" fill="#19274B"/>
<path d="M18.3159 20.8081C18.3159 20.9167 18.2272 21.0053 18.1186 21.0053C18.01 21.0053 17.9213 20.9167 17.9213 20.8081C17.9213 20.6994 18.01 20.6108 18.1186 20.6108C18.2272 20.6079 18.3159 20.6966 18.3159 20.8081Z" fill="#F55B5D"/>
<path d="M19.2822 21.2855C19.2822 21.3941 19.1936 21.4828 19.085 21.4828C18.9763 21.4828 18.8877 21.3941 18.8877 21.2855C18.8877 21.1769 18.9763 21.0882 19.085 21.0882C19.1936 21.0882 19.2822 21.1769 19.2822 21.2855Z" fill="#F55B5D"/>
<path d="M18.3159 21.9717C18.3159 22.0803 18.2273 22.1689 18.1187 22.1689C18.01 22.1689 17.9214 22.0803 17.9214 21.9717C17.9214 21.863 18.01 21.7744 18.1187 21.7744C18.2273 21.7744 18.3159 21.863 18.3159 21.9717Z" fill="#F55B5D"/>
<path d="M19.6368 22.3691C19.7457 22.3691 19.8341 22.2807 19.8341 22.1718C19.8341 22.0628 19.7457 21.9745 19.6368 21.9745C19.5278 21.9745 19.4395 22.0628 19.4395 22.1718C19.4395 22.2807 19.5278 22.3691 19.6368 22.3691Z" fill="#F55B5D"/>
<path d="M20.6487 22.1689C20.7577 22.1689 20.846 22.0806 20.846 21.9717C20.846 21.8627 20.7577 21.7744 20.6487 21.7744C20.5398 21.7744 20.4515 21.8627 20.4515 21.9717C20.4515 22.0806 20.5398 22.1689 20.6487 22.1689Z" fill="#F55B5D"/>
<path d="M20.3858 21.0053C20.3858 21.114 20.2972 21.2026 20.1885 21.2026C20.0799 21.2026 19.9913 21.114 19.9913 21.0053C19.9913 20.8967 20.0799 20.8081 20.1885 20.8081C20.2972 20.8081 20.3858 20.8967 20.3858 21.0053Z" fill="#F55B5D"/>
<path d="M29.1913 21.0053C29.3002 21.0053 29.3886 20.917 29.3886 20.808C29.3886 20.6991 29.3002 20.6108 29.1913 20.6108C29.0823 20.6108 28.994 20.6991 28.994 20.808C28.994 20.917 29.0823 21.0053 29.1913 21.0053Z" fill="#F55B5D"/>
<path d="M28.225 21.4828C28.3339 21.4828 28.4222 21.3944 28.4222 21.2855C28.4222 21.1765 28.3339 21.0882 28.225 21.0882C28.116 21.0882 28.0277 21.1765 28.0277 21.2855C28.0277 21.3944 28.116 21.4828 28.225 21.4828Z" fill="#F55B5D"/>
<path d="M29.1913 22.1689C29.3002 22.1689 29.3886 22.0806 29.3886 21.9717C29.3886 21.8627 29.3002 21.7744 29.1913 21.7744C29.0823 21.7744 28.994 21.8627 28.994 21.9717C28.994 22.0806 29.0823 22.1689 29.1913 22.1689Z" fill="#F55B5D"/>
<path d="M27.6704 22.3691C27.7793 22.3691 27.8676 22.2807 27.8676 22.1718C27.8676 22.0628 27.7793 21.9745 27.6704 21.9745C27.5614 21.9745 27.4731 22.0628 27.4731 22.1718C27.4731 22.2807 27.5614 22.3691 27.6704 22.3691Z" fill="#F55B5D"/>
<path d="M26.461 21.9717C26.461 22.0803 26.5496 22.1689 26.6583 22.1689C26.7669 22.1689 26.8555 22.0803 26.8555 21.9717C26.8555 21.863 26.7669 21.7744 26.6583 21.7744C26.5496 21.7744 26.461 21.863 26.461 21.9717Z" fill="#F55B5D"/>
<path d="M27.1185 21.2026C27.2275 21.2026 27.3158 21.1143 27.3158 21.0053C27.3158 20.8964 27.2275 20.8081 27.1185 20.8081C27.0096 20.8081 26.9213 20.8964 26.9213 21.0053C26.9213 21.1143 27.0096 21.2026 27.1185 21.2026Z" fill="#F55B5D"/>
</g>
</g>
</svg>
