<svg width="21" height="21" viewBox="0 0 21 21" fill="none" xmlns="http://www.w3.org/2000/svg">
<path opacity="0.4" d="M13.7393 1.78125H16.6245C17.8193 1.78125 18.7875 2.75761 18.7875 3.96255V6.87204C18.7875 8.07698 17.8193 9.05334 16.6245 9.05334H13.7393C12.5445 9.05334 11.5763 8.07698 11.5763 6.87204V3.96255C11.5763 2.75761 12.5445 1.78125 13.7393 1.78125" fill="white" fill-opacity="0.5"/>
<path fill-rule="evenodd" clip-rule="evenodd" d="M3.9089 1.78125H6.79403C7.98888 1.78125 8.95706 2.75761 8.95706 3.96255V6.87204C8.95706 8.07698 7.98888 9.05334 6.79403 9.05334H3.9089C2.71405 9.05334 1.74587 8.07698 1.74587 6.87204V3.96255C1.74587 2.75761 2.71405 1.78125 3.9089 1.78125ZM3.90888 11.5508H6.79401C7.98886 11.5508 8.95704 12.5272 8.95704 13.7321V16.6416C8.95704 17.8457 7.98886 18.8229 6.79401 18.8229H3.90888C2.71403 18.8229 1.74585 17.8457 1.74585 16.6416V13.7321C1.74585 12.5272 2.71403 11.5508 3.90888 11.5508ZM16.6245 11.5508H13.7394C12.5445 11.5508 11.5763 12.5272 11.5763 13.7321V16.6416C11.5763 17.8457 12.5445 18.8229 13.7394 18.8229H16.6245C17.8193 18.8229 18.7875 17.8457 18.7875 16.6416V13.7321C18.7875 12.5272 17.8193 11.5508 16.6245 11.5508Z" fill="white" fill-opacity="0.5"/>
</svg>
