<svg width="21" height="21" viewBox="0 0 21 21" fill="none" xmlns="http://www.w3.org/2000/svg">
<path opacity="0.4" d="M13.8377 1.78125H6.69642C4.10609 1.78125 2.5979 3.29796 2.5979 5.89681V14.6988C2.5979 17.3403 4.10609 18.8229 6.69642 18.8229H13.8377C16.4698 18.8229 17.9354 17.3403 17.9354 14.6988V5.89681C17.9354 3.29796 16.4698 1.78125 13.8377 1.78125" fill="white" fill-opacity="0.5"/>
<path fill-rule="evenodd" clip-rule="evenodd" d="M6.92652 5.74344V5.75196C6.55927 5.75196 6.26189 6.05019 6.26189 6.41658C6.26189 6.78298 6.55927 7.08121 6.92652 7.08121H9.47339C9.84064 7.08121 10.1389 6.78298 10.1389 6.40721C10.1389 6.04167 9.84064 5.74344 9.47339 5.74344H6.92652ZM13.6068 10.9326H6.92652C6.55927 10.9326 6.26189 10.6344 6.26189 10.268C6.26189 9.9016 6.55927 9.60252 6.92652 9.60252H13.6068C13.9732 9.60252 14.2715 9.9016 14.2715 10.268C14.2715 10.6344 13.9732 10.9326 13.6068 10.9326ZM13.6068 14.8267H6.92649C6.67087 14.8607 6.42376 14.7329 6.28743 14.5199C6.1511 14.2984 6.1511 14.0172 6.28743 13.8042C6.42376 13.5826 6.67087 13.4633 6.92649 13.4889H13.6068C13.9468 13.523 14.2033 13.8127 14.2033 14.162C14.2033 14.502 13.9468 14.7926 13.6068 14.8267Z" fill="white" fill-opacity="0.5"/>
</svg>
