<svg width="21" height="21" viewBox="0 0 21 21" fill="none" xmlns="http://www.w3.org/2000/svg">
<path opacity="0.4" d="M17.077 16.2268H12.225C11.7517 16.2268 11.3666 16.618 11.3666 17.0988C11.3666 17.5806 11.7517 17.9708 12.225 17.9708H17.077C17.5504 17.9708 17.9355 17.5806 17.9355 17.0988C17.9355 16.618 17.5504 16.2268 17.077 16.2268" fill="white" fill-opacity="0.5"/>
<path d="M8.8258 5.95977L13.4235 9.67493C13.5344 9.76377 13.5534 9.92682 13.4668 10.0404L8.01608 17.1428C7.67344 17.5815 7.16849 17.8298 6.62747 17.8389L3.65189 17.8756C3.4932 17.8774 3.35434 17.7675 3.31827 17.6099L2.642 14.6697C2.52478 14.1293 2.642 13.5705 2.98464 13.14L8.46242 6.00373C8.55078 5.88924 8.71399 5.86908 8.8258 5.95977" fill="white" fill-opacity="0.5"/>
<path opacity="0.4" d="M15.4819 7.46076L14.5956 8.56725C14.5063 8.67991 14.3458 8.69823 14.2349 8.60846C13.1574 7.73646 10.3982 5.49876 9.63266 4.87865C9.52085 4.78705 9.50553 4.62401 9.59569 4.51043L10.4505 3.44883C11.226 2.45042 12.5785 2.35883 13.6695 3.22899L14.9229 4.2274C15.4368 4.63042 15.7795 5.16168 15.8967 5.72042C16.032 6.33504 15.8877 6.93866 15.4819 7.46076" fill="white" fill-opacity="0.5"/>
</svg>
