<svg width="21" height="21" viewBox="0 0 21 21" fill="none" xmlns="http://www.w3.org/2000/svg">
<path opacity="0.4" d="M14.4285 4.78143H11.9208C11.2961 4.78556 10.7029 4.50766 10.307 4.02534L9.48123 2.88365C9.09197 2.3971 8.49886 2.1179 7.87506 2.12756H6.10222C2.92018 2.12756 1.74586 3.9951 1.74586 7.17066V10.6033C1.7419 10.9808 18.7838 10.9803 18.7849 10.6033V9.60526C18.8001 6.4297 17.656 4.78143 14.4285 4.78143Z" fill="white" fill-opacity="0.5"/>
<path fill-rule="evenodd" clip-rule="evenodd" d="M17.7924 5.99874C18.065 6.31749 18.2757 6.68415 18.4137 7.07995C18.6851 7.89342 18.8108 8.74827 18.7849 9.60528V14.0813C18.7838 14.4583 18.7559 14.8348 18.7016 15.2079C18.598 15.8663 18.3663 16.4982 18.0197 17.0679C17.8604 17.343 17.6669 17.5971 17.4439 17.8239C16.4343 18.7505 15.0937 19.2328 13.7239 19.1622H6.79923C5.42727 19.2323 4.08449 18.7502 3.0717 17.8239C2.85135 17.5966 2.66045 17.3426 2.50348 17.0679C2.1589 16.4986 1.93219 15.8661 1.83677 15.2079C1.77609 14.8354 1.74569 14.4587 1.74585 14.0813V9.60528C1.7457 9.23145 1.76594 8.8579 1.80646 8.48627C1.81498 8.42107 1.82777 8.35693 1.84042 8.29345C1.8615 8.18763 1.88222 8.08366 1.88222 7.97969C1.95913 7.53122 2.09943 7.09591 2.29892 6.68678C2.88987 5.42412 4.10207 4.78144 6.08706 4.78144H14.421C15.5327 4.69546 16.6363 5.03015 17.5121 5.71899C17.6129 5.80452 17.7067 5.89808 17.7924 5.99874ZM5.98098 13.6655H14.5573H14.5725C14.7607 13.6736 14.9443 13.6063 15.0824 13.4784C15.2204 13.3506 15.3015 13.1729 15.3074 12.985C15.318 12.8198 15.2636 12.6571 15.1558 12.5313C15.0318 12.3624 14.8354 12.2615 14.6255 12.2591H5.98098C5.59184 12.2591 5.27638 12.574 5.27638 12.9623C5.27638 13.3507 5.59184 13.6655 5.98098 13.6655Z" fill="white" fill-opacity="0.5"/>
</svg>
