<svg width="21" height="21" viewBox="0 0 21 21" fill="none" xmlns="http://www.w3.org/2000/svg">
<path d="M7.83289 18.2185V15.6053C7.83288 14.9431 8.37135 14.4051 9.03833 14.4009H11.4874C12.1573 14.4009 12.7004 14.9402 12.7004 15.6053V15.6053V18.2109C12.7004 18.7853 13.1672 19.2521 13.7457 19.2562H15.4165C16.1969 19.2583 16.9459 18.9519 17.4984 18.4048C18.0509 17.8577 18.3615 17.1148 18.3615 16.34V8.91696C18.3614 8.29114 18.082 7.69751 17.5985 7.296L11.9222 2.78913C10.93 2.00083 9.51289 2.0263 8.55005 2.84973L2.99585 7.296C2.48948 7.68567 2.18683 8.28106 2.17188 8.91696V16.3325C2.17188 17.9472 3.49037 19.2562 5.11682 19.2562H6.74951C7.02804 19.2583 7.29587 19.1498 7.49354 18.955C7.69121 18.7602 7.80238 18.4951 7.80237 18.2185H7.83289Z" fill="white"/>
</svg>
