<svg width="130" height="44" viewBox="0 0 130 44" fill="none" xmlns="http://www.w3.org/2000/svg">
<path d="M26.4588 31.5412V23.7018H26.44V18.2836H26.4588V10.0876L26.1272 10.4567L18.6069 18.3399V23.8019L18.6194 23.6893L18.5944 23.8081L26.4588 31.5412Z" fill="white"/>
<path d="M26.4838 10.0688L26.4588 10.0938V18.3337L36 18.3274V10.0688H26.4838Z" fill="white"/>
<path d="M36 31.5162V23.7706L26.4588 23.7018V31.5162H36Z" fill="white"/>
<path d="M17.5558 18.3399V31.61H9.70386V10H9.73514L17.5558 18.3399Z" fill="white"/>
<path d="M9.6976 10H0V18.2086H9.6976V10Z" fill="white"/>
<path d="M49.5281 8.48663V6.25824H60.0271V8.48663H56.1134V19.0418H53.4418V8.48663H49.5281ZM63.868 19.2229C63.2563 19.2229 62.7112 19.1167 62.2326 18.9045C61.7541 18.6881 61.3754 18.3698 61.0966 17.9495C60.8219 17.525 60.6846 16.9965 60.6846 16.364C60.6846 15.8314 60.7824 15.384 60.978 15.022C61.1735 14.66 61.4399 14.3687 61.7769 14.1481C62.114 13.9276 62.4969 13.7611 62.9255 13.6488C63.3582 13.5364 63.8118 13.4573 64.2862 13.4116C64.8438 13.3533 65.2933 13.2992 65.6345 13.2493C65.9757 13.1952 66.2233 13.1161 66.3773 13.0121C66.5313 12.908 66.6082 12.7541 66.6082 12.5502V12.5127C66.6082 12.1174 66.4834 11.8115 66.2337 11.5951C65.9882 11.3788 65.6387 11.2706 65.1851 11.2706C64.7065 11.2706 64.3258 11.3767 64.0428 11.5889C63.7598 11.797 63.5726 12.0591 63.481 12.3754L61.0217 12.1756C61.1465 11.5931 61.392 11.0895 61.7582 10.6651C62.1244 10.2365 62.5967 9.90772 63.1751 9.67885C63.7577 9.44581 64.4319 9.3293 65.1976 9.3293C65.7302 9.3293 66.24 9.39172 66.7268 9.51656C67.2179 9.6414 67.6527 9.8349 68.0314 10.0971C68.4143 10.3592 68.716 10.6963 68.9365 11.1083C69.1571 11.5161 69.2673 12.005 69.2673 12.5751V19.0418H66.7456V17.7123H66.6707C66.5167 18.0119 66.3107 18.2762 66.0527 18.505C65.7947 18.7297 65.4847 18.9066 65.1226 19.0356C64.7606 19.1604 64.3424 19.2229 63.868 19.2229ZM64.6295 17.3877C65.0207 17.3877 65.3661 17.3107 65.6657 17.1568C65.9653 16.9986 66.2004 16.7864 66.371 16.5201C66.5417 16.2537 66.627 15.9521 66.627 15.615V14.5975C66.5437 14.6516 66.4293 14.7016 66.2837 14.7473C66.1422 14.789 65.982 14.8285 65.803 14.8659C65.6241 14.8992 65.4452 14.9304 65.2662 14.9596C65.0873 14.9845 64.925 15.0074 64.7793 15.0282C64.4672 15.074 64.1947 15.1468 63.9616 15.2467C63.7286 15.3466 63.5476 15.4818 63.4186 15.6524C63.2896 15.8189 63.2251 16.027 63.2251 16.2766C63.2251 16.6387 63.3562 16.9154 63.6183 17.1068C63.8847 17.2941 64.2217 17.3877 64.6295 17.3877ZM74.2849 9.45414L76.0451 12.8061L77.849 9.45414H80.5768L77.7991 14.248L80.6517 19.0418H77.9364L76.0451 15.7273L74.185 19.0418H71.4385L74.2849 14.248L71.5384 9.45414H74.2849ZM99.0182 10.7337H96.2842C96.2343 10.38 96.1324 10.0659 95.9784 9.7912C95.8244 9.5124 95.6268 9.2752 95.3854 9.07962C95.144 8.88403 94.8652 8.73423 94.549 8.63019C94.2369 8.52616 93.8977 8.47414 93.5315 8.47414C92.8699 8.47414 92.2935 8.63852 91.8025 8.96726C91.3115 9.29185 90.9307 9.76624 90.6602 10.3904C90.3897 11.0105 90.2545 11.7637 90.2545 12.65C90.2545 13.5614 90.3897 14.3271 90.6602 14.9471C90.9349 15.5671 91.3177 16.0353 91.8087 16.3515C92.2998 16.6678 92.8678 16.8259 93.5128 16.8259C93.8748 16.8259 94.2098 16.7781 94.5178 16.6824C94.8299 16.5867 95.1066 16.4473 95.3479 16.2642C95.5893 16.0769 95.789 15.8501 95.9472 15.5838C96.1095 15.3175 96.2218 15.0137 96.2842 14.6724L99.0182 14.6849C98.9475 15.2717 98.7706 15.8376 98.4877 16.3828C98.2089 16.9237 97.8323 17.4085 97.3579 17.8371C96.8876 18.2616 96.3259 18.5987 95.6725 18.8483C95.0234 19.0939 94.2889 19.2166 93.4691 19.2166C92.3289 19.2166 91.3094 18.9586 90.4105 18.4426C89.5158 17.9266 88.8084 17.1796 88.2882 16.2017C87.7722 15.2238 87.5142 14.0399 87.5142 12.65C87.5142 11.256 87.7764 10.07 88.3007 9.0921C88.8251 8.11419 89.5366 7.36931 90.4355 6.85747C91.3343 6.34146 92.3455 6.08346 93.4691 6.08346C94.2098 6.08346 94.8964 6.18749 95.529 6.39556C96.1656 6.60363 96.7295 6.9074 97.2205 7.30689C97.7116 7.70222 98.1111 8.18701 98.419 8.76128C98.7311 9.33554 98.9308 9.99303 99.0182 10.7337ZM104.373 19.2229C103.761 19.2229 103.216 19.1167 102.737 18.9045C102.259 18.6881 101.88 18.3698 101.601 17.9495C101.327 17.525 101.189 16.9965 101.189 16.364C101.189 15.8314 101.287 15.384 101.483 15.022C101.678 14.66 101.945 14.3687 102.282 14.1481C102.619 13.9276 103.002 13.7611 103.43 13.6488C103.863 13.5364 104.317 13.4573 104.791 13.4116C105.349 13.3533 105.798 13.2992 106.139 13.2493C106.481 13.1952 106.728 13.1161 106.882 13.0121C107.036 12.908 107.113 12.7541 107.113 12.5502V12.5127C107.113 12.1174 106.988 11.8115 106.739 11.5951C106.493 11.3788 106.143 11.2706 105.69 11.2706C105.211 11.2706 104.831 11.3767 104.548 11.5889C104.265 11.797 104.077 12.0591 103.986 12.3754L101.526 12.1756C101.651 11.5931 101.897 11.0895 102.263 10.6651C102.629 10.2365 103.102 9.90772 103.68 9.67885C104.263 9.44581 104.937 9.3293 105.702 9.3293C106.235 9.3293 106.745 9.39172 107.232 9.51656C107.723 9.6414 108.158 9.8349 108.536 10.0971C108.919 10.3592 109.221 10.6963 109.441 11.1083C109.662 11.5161 109.772 12.005 109.772 12.5751V19.0418H107.25V17.7123H107.175C107.022 18.0119 106.816 18.2762 106.558 18.505C106.3 18.7297 105.99 18.9066 105.627 19.0356C105.265 19.1604 104.847 19.2229 104.373 19.2229ZM105.134 17.3877C105.526 17.3877 105.871 17.3107 106.171 17.1568C106.47 16.9986 106.705 16.7864 106.876 16.5201C107.046 16.2537 107.132 15.9521 107.132 15.615V14.5975C107.049 14.6516 106.934 14.7016 106.788 14.7473C106.647 14.789 106.487 14.8285 106.308 14.8659C106.129 14.8992 105.95 14.9304 105.771 14.9596C105.592 14.9845 105.43 15.0074 105.284 15.0282C104.972 15.074 104.699 15.1468 104.466 15.2467C104.233 15.3466 104.052 15.4818 103.923 15.6524C103.794 15.8189 103.73 16.027 103.73 16.2766C103.73 16.6387 103.861 16.9154 104.123 17.1068C104.389 17.2941 104.727 17.3877 105.134 17.3877ZM112.568 19.0418V9.45414H115.145V11.127H115.245C115.42 10.5319 115.713 10.0825 116.125 9.77872C116.537 9.47078 117.012 9.31681 117.549 9.31681C117.682 9.31681 117.825 9.32514 117.979 9.34178C118.133 9.35843 118.269 9.38131 118.385 9.41044V11.7699C118.26 11.7325 118.088 11.6992 117.867 11.67C117.646 11.6409 117.445 11.6264 117.262 11.6264C116.87 11.6264 116.521 11.7117 116.213 11.8823C115.909 12.0487 115.668 12.2818 115.489 12.5814C115.314 12.881 115.227 13.2264 115.227 13.6175V19.0418H112.568ZM124.415 19.2291C123.429 19.2291 122.58 19.0294 121.869 18.6299C121.161 18.2262 120.616 17.6561 120.233 16.9196C119.85 16.1788 119.659 15.3029 119.659 14.2917C119.659 13.3054 119.85 12.4399 120.233 11.695C120.616 10.9501 121.155 10.3696 121.85 9.9535C122.549 9.53736 123.369 9.3293 124.309 9.3293C124.942 9.3293 125.531 9.43125 126.076 9.63516C126.625 9.8349 127.104 10.1366 127.511 10.5402C127.923 10.9439 128.244 11.4516 128.473 12.0633C128.702 12.6708 128.816 13.3824 128.816 14.1981V14.9284H120.72V13.2805H126.313C126.313 12.8976 126.23 12.5585 126.063 12.263C125.897 11.9676 125.666 11.7366 125.37 11.5702C125.079 11.3996 124.74 11.3143 124.353 11.3143C123.949 11.3143 123.591 11.4079 123.279 11.5951C122.971 11.7782 122.73 12.0258 122.555 12.3379C122.38 12.6459 122.291 12.9892 122.287 13.3679V14.9346C122.287 15.409 122.374 15.8189 122.549 16.1643C122.728 16.5097 122.98 16.776 123.304 16.9633C123.629 17.1505 124.014 17.2441 124.459 17.2441C124.754 17.2441 125.025 17.2025 125.27 17.1193C125.516 17.0361 125.726 16.9112 125.901 16.7448C126.076 16.5783 126.209 16.3744 126.3 16.1331L128.76 16.2954C128.635 16.8863 128.379 17.4023 127.992 17.8434C127.609 18.2803 127.114 18.6215 126.506 18.8671C125.903 19.1084 125.206 19.2291 124.415 19.2291Z" fill="white"/>
<path d="M52.1372 35.0841C54.4093 35.0841 55.7238 33.6749 55.7238 31.3446C55.7238 29.0252 54.4093 27.627 52.2137 27.627H49.7231V35.0841H52.1372ZM50.8483 34.101V28.6101H52.1445C53.7757 28.6101 54.6169 29.5859 54.6169 31.3446C54.6169 33.1106 53.7757 34.101 52.0753 34.101H50.8483ZM59.3955 35.2079C60.3203 35.2079 60.841 34.7382 61.0486 34.3194H61.0923V35.0841H62.1555V31.3701C62.1555 29.7425 60.8738 29.4184 59.9854 29.4184C58.9731 29.4184 58.041 29.8262 57.6769 30.8458L58.7 31.0788C58.8602 30.6819 59.268 30.2996 59.9999 30.2996C60.7027 30.2996 61.0631 30.6673 61.0631 31.3009V31.3264C61.0631 31.7233 60.6553 31.716 59.6504 31.8325C58.5908 31.9563 57.5057 32.233 57.5057 33.5038C57.5057 34.6034 58.3323 35.2079 59.3955 35.2079ZM59.6322 34.334C59.0168 34.334 58.5726 34.0573 58.5726 33.5184C58.5726 32.9358 59.0896 32.7282 59.7196 32.6445C60.0727 32.5972 60.9102 32.5025 61.0668 32.3459V33.0669C61.0668 33.7296 60.5388 34.334 59.6322 34.334ZM68.529 30.8567C68.3032 29.9864 67.6223 29.4184 66.4134 29.4184C65.15 29.4184 64.2542 30.0848 64.2542 31.0752C64.2542 31.8689 64.7349 32.3969 65.7835 32.6299L66.7302 32.8375C67.2691 32.9576 67.5204 33.198 67.5204 33.5475C67.5204 33.9808 67.0579 34.3194 66.3443 34.3194C65.6925 34.3194 65.2738 34.0391 65.1427 33.4892L64.0904 33.6495C64.2724 34.6399 65.0953 35.197 66.3515 35.197C67.7024 35.197 68.6382 34.4796 68.6382 33.4674C68.6382 32.6773 68.1357 32.1894 67.1089 31.9527L66.2205 31.7488C65.6051 31.6031 65.3393 31.3956 65.3429 31.0169C65.3393 30.5872 65.8054 30.2814 66.4244 30.2814C67.1016 30.2814 67.4148 30.6564 67.5422 31.0315L68.529 30.8567ZM71.6563 31.7633C71.6563 30.8713 72.2207 30.3615 72.9963 30.3615C73.7463 30.3615 74.1942 30.8385 74.1942 31.6577V35.0841H75.2829V31.5267C75.2829 30.1321 74.5183 29.4184 73.3677 29.4184C72.4974 29.4184 71.9731 29.7971 71.7109 30.4015H71.6418V27.627H70.5676V35.0841H71.6563V31.7633ZM77.5555 35.0841H78.6187V34.2138H78.7098C78.9064 34.5707 79.3069 35.1933 80.3264 35.1933C81.681 35.1933 82.6641 34.1082 82.6641 32.2986C82.6641 30.4853 81.6664 29.4184 80.3155 29.4184C79.2778 29.4184 78.9028 30.052 78.7098 30.3979H78.6442V27.627H77.5555V35.0841ZM78.6224 32.2877C78.6224 31.1189 79.1321 30.3433 80.0825 30.3433C81.0692 30.3433 81.5644 31.1771 81.5644 32.2877C81.5644 33.4091 81.0547 34.2648 80.0825 34.2648C79.1467 34.2648 78.6224 33.4638 78.6224 32.2877ZM86.9748 35.197C88.5514 35.197 89.5819 34.0427 89.5819 32.3132C89.5819 30.5727 88.5514 29.4184 86.9748 29.4184C85.3982 29.4184 84.3677 30.5727 84.3677 32.3132C84.3677 34.0427 85.3982 35.197 86.9748 35.197ZM86.9785 34.283C85.948 34.283 85.4674 33.3837 85.4674 32.3095C85.4674 31.239 85.948 30.3287 86.9785 30.3287C88.0016 30.3287 88.4823 31.239 88.4823 32.3095C88.4823 33.3837 88.0016 34.283 86.9785 34.283ZM93.1571 35.2079C94.082 35.2079 94.6027 34.7382 94.8102 34.3194H94.8539V35.0841H95.9171V31.3701C95.9171 29.7425 94.6354 29.4184 93.747 29.4184C92.7348 29.4184 91.8026 29.8262 91.4385 30.8458L92.4617 31.0788C92.6219 30.6819 93.0297 30.2996 93.7616 30.2996C94.4643 30.2996 94.8248 30.6673 94.8248 31.3009V31.3264C94.8248 31.7233 94.417 31.716 93.412 31.8325C92.3524 31.9563 91.2674 32.233 91.2674 33.5038C91.2674 34.6034 92.0939 35.2079 93.1571 35.2079ZM93.3938 34.334C92.7784 34.334 92.3342 34.0573 92.3342 33.5184C92.3342 32.9358 92.8513 32.7282 93.4812 32.6445C93.8344 32.5972 94.6718 32.5025 94.8284 32.3459V33.0669C94.8284 33.7296 94.3005 34.334 93.3938 34.334ZM98.0996 35.0841H99.1883V31.6687C99.1883 30.9368 99.7527 30.4088 100.525 30.4088C100.75 30.4088 101.005 30.4489 101.093 30.4744V29.433C100.983 29.4184 100.769 29.4075 100.63 29.4075C99.9748 29.4075 99.4141 29.7789 99.2102 30.3797H99.1519V29.4913H98.0996V35.0841ZM104.661 35.1933C105.68 35.1933 106.081 34.5707 106.277 34.2138H106.368V35.0841H107.432V27.627H106.343V30.3979H106.277C106.081 30.052 105.709 29.4184 104.668 29.4184C103.317 29.4184 102.323 30.4853 102.323 32.2986C102.323 34.1082 103.302 35.1933 104.661 35.1933ZM104.901 34.2648C103.929 34.2648 103.423 33.4091 103.423 32.2877C103.423 31.1771 103.918 30.3433 104.901 30.3433C105.851 30.3433 106.361 31.1189 106.361 32.2877C106.361 33.4638 105.84 34.2648 104.901 34.2648Z" fill="white"/>
</svg>
