<svg width="21" height="21" viewBox="0 0 21 21" fill="none" xmlns="http://www.w3.org/2000/svg">
<path opacity="0.4" d="M18.7874 13.6595C18.7874 16.0368 16.8787 17.9625 14.5014 17.971H14.4929H6.04875C3.67996 17.971 1.74573 16.0538 1.74573 13.6765V13.668C1.74573 13.668 1.75084 9.89666 1.75766 7.99992C1.75851 7.64375 2.16751 7.44436 2.44614 7.66591C4.47069 9.27208 8.09119 12.2007 8.13635 12.239C8.74133 12.7239 9.50821 12.9974 10.2921 12.9974C11.076 12.9974 11.8429 12.7239 12.4479 12.2297C12.4931 12.1998 16.0326 9.35899 18.0878 7.7264C18.3673 7.50401 18.778 7.7034 18.7789 8.05872C18.7874 9.94097 18.7874 13.6595 18.7874 13.6595" fill="white" fill-opacity="0.5"/>
<path d="M18.341 4.91147C17.6031 3.52087 16.1512 2.633 14.5527 2.633H6.04888C4.45038 2.633 2.99842 3.52087 2.26052 4.91147C2.09522 5.22248 2.17361 5.61017 2.44883 5.83001L8.77555 10.8905C9.21863 11.2484 9.75545 11.4265 10.2923 11.4265C10.2957 11.4265 10.2982 11.4265 10.3008 11.4265C10.3033 11.4265 10.3067 11.4265 10.3093 11.4265C10.8461 11.4265 11.3829 11.2484 11.826 10.8905L18.1527 5.83001C18.428 5.61017 18.5063 5.22248 18.341 4.91147" fill="white" fill-opacity="0.5"/>
</svg>
