<svg width="22" height="22" viewBox="0 0 22 22" fill="none" xmlns="http://www.w3.org/2000/svg">
<path d="M17.6932 10.7809C17.0708 10.054 16.788 9.42413 16.788 8.354V7.99014C16.788 6.59562 16.467 5.69713 15.7692 4.79863C14.6937 3.40326 12.8831 2.56226 11.1107 2.56226H11.0353C9.30008 2.56226 7.54625 3.36464 6.45212 4.70337C5.7162 5.61989 5.35798 6.55701 5.35798 7.99014V8.354C5.35798 9.42413 5.09377 10.054 4.4527 10.7809C3.981 11.3164 3.83026 12.0046 3.83026 12.7495C3.83026 13.4953 4.075 14.2015 4.56618 14.7756C5.20724 15.4639 6.11253 15.9033 7.03729 15.9796C8.37617 16.1324 9.71504 16.1899 11.0734 16.1899C12.4309 16.1899 13.7698 16.0938 15.1095 15.9796C16.0334 15.9033 16.9387 15.4639 17.5798 14.7756C18.0701 14.2015 18.3157 13.4953 18.3157 12.7495C18.3157 12.0046 18.1649 11.3164 17.6932 10.7809" fill="#D6D7E3"/>
<path opacity="0.4" d="M12.7846 17.2421C12.3586 17.1511 9.763 17.1511 9.33703 17.2421C8.97289 17.3262 8.5791 17.5218 8.5791 17.9509C8.60027 18.3602 8.83993 18.7215 9.1719 18.9507L9.17105 18.9515C9.60041 19.2862 10.1043 19.499 10.6319 19.5754C10.913 19.614 11.1993 19.6123 11.4906 19.5754C12.0173 19.499 12.5212 19.2862 12.9506 18.9515L12.9497 18.9507C13.2817 18.7215 13.5213 18.3602 13.5425 17.9509C13.5425 17.5218 13.1487 17.3262 12.7846 17.2421" fill="#D6D7E3"/>
</svg>
