<svg width="21" height="21" viewBox="0 0 21 21" fill="none" xmlns="http://www.w3.org/2000/svg">
<path d="M10.2769 12.7136C8.90974 12.7136 7.80383 11.6485 7.80383 10.3107C7.80383 8.97292 8.90974 7.89929 10.2769 7.89929C11.644 7.89929 12.7238 8.97292 12.7238 10.3107C12.7238 11.6485 11.644 12.7136 10.2769 12.7136" fill="white" fill-opacity="0.5"/>
<path opacity="0.4" d="M18.1314 12.3216C17.9659 12.066 17.7308 11.8104 17.426 11.6485C17.1822 11.5292 17.0255 11.3332 16.8862 11.1031C16.442 10.3703 16.7033 9.40748 17.4435 8.97292C18.3143 8.48723 18.5929 7.40508 18.0878 6.56152L17.5044 5.55606C17.0081 4.7125 15.9196 4.41427 15.0575 4.90848C14.2912 5.31748 13.3072 5.04481 12.8631 4.32054C12.7238 4.08196 12.6454 3.82633 12.6628 3.57071C12.6889 3.2384 12.5844 2.92313 12.4277 2.6675C12.1055 2.13921 11.5221 1.78133 10.8777 1.78133H9.64986C9.01418 1.79838 8.43075 2.13921 8.10856 2.6675C7.94311 2.92313 7.84732 3.2384 7.86474 3.57071C7.88215 3.82633 7.80378 4.08196 7.66446 4.32054C7.22035 5.04481 6.23635 5.31748 5.47877 4.90848C4.60797 4.41427 3.52819 4.7125 3.02313 5.55606L2.4397 6.56152C1.94335 7.40508 2.222 8.48723 3.08408 8.97292C3.82426 9.40748 4.0855 10.3703 3.6501 11.1031C3.50207 11.3332 3.34532 11.5292 3.1015 11.6485C2.80543 11.8104 2.54419 12.066 2.40487 12.3216C2.08267 12.8499 2.10009 13.5145 2.42228 14.0684L3.02313 15.0909C3.34532 15.6362 3.94617 15.977 4.57314 15.977C4.86921 15.977 5.21753 15.8918 5.49618 15.7214C5.71388 15.5766 5.97512 15.5254 6.26248 15.5254C7.12456 15.5254 7.84732 16.2327 7.86474 17.0762C7.86474 18.0561 8.66587 18.823 9.67599 18.823H10.8603C11.8617 18.823 12.6628 18.0561 12.6628 17.0762C12.6889 16.2327 13.4117 15.5254 14.2738 15.5254C14.5524 15.5254 14.8137 15.5766 15.0401 15.7214C15.3187 15.8918 15.6583 15.977 15.9631 15.977C16.5814 15.977 17.1822 15.6362 17.5044 15.0909L18.114 14.0684C18.4275 13.4975 18.4536 12.8499 18.1314 12.3216" fill="white" fill-opacity="0.5"/>
</svg>
