<svg width="36" height="36" viewBox="0 0 36 36" fill="none" xmlns="http://www.w3.org/2000/svg">
<path d="M9 21.7508C9 22.1486 8.84196 22.5301 8.56066 22.8114C8.27936 23.0927 7.89782 23.2508 7.5 23.2508C7.10218 23.2508 6.72064 23.0927 6.43934 22.8114C6.15804 22.5301 6 22.1486 6 21.7508V15.0008C6 14.6029 6.15804 14.2214 6.43934 13.9401C6.72064 13.6588 7.10218 13.5008 7.5 13.5008C7.89782 13.5008 8.27936 13.6588 8.56066 13.9401C8.84196 14.2214 9 14.6029 9 15.0008V21.7508Z" fill="#7CB342"/>
<path d="M30 21.7508C30 22.1486 29.842 22.5301 29.5607 22.8114C29.2794 23.0927 28.8978 23.2508 28.5 23.2508C28.1022 23.2508 27.7206 23.0927 27.4393 22.8114C27.158 22.5301 27 22.1486 27 21.7508V15.0008C27 14.6029 27.158 14.2214 27.4393 13.9401C27.7206 13.6588 28.1022 13.5008 28.5 13.5008C28.8978 13.5008 29.2794 13.6588 29.5607 13.9401C29.842 14.2214 30 14.6029 30 15.0008V21.7508Z" fill="#7CB342"/>
<path d="M16.5 30C16.5 30.3978 16.342 30.7794 16.0607 31.0607C15.7794 31.342 15.3978 31.5 15 31.5C14.6022 31.5 14.2206 31.342 13.9393 31.0607C13.658 30.7794 13.5 30.3978 13.5 30V23.25C13.5 22.8522 13.658 22.4706 13.9393 22.1893C14.2206 21.908 14.6022 21.75 15 21.75C15.3978 21.75 15.7794 21.908 16.0607 22.1893C16.342 22.4706 16.5 22.8522 16.5 23.25V30Z" fill="#7CB342"/>
<path d="M22.5 30C22.5 30.3978 22.342 30.7794 22.0607 31.0607C21.7794 31.342 21.3978 31.5 21 31.5C20.6022 31.5 20.2206 31.342 19.9393 31.0607C19.658 30.7794 19.5 30.3978 19.5 30V23.25C19.5 22.8522 19.658 22.4706 19.9393 22.1893C20.2206 21.908 20.6022 21.75 21 21.75C21.3978 21.75 21.7794 21.908 22.0607 22.1893C22.342 22.4706 22.5 22.8522 22.5 23.25V30Z" fill="#7CB342"/>
<path d="M10.5 13.5008V24.75C10.5 25.1478 10.658 25.5294 10.9393 25.8107C11.2206 26.092 11.6022 26.25 12 26.25H24C24.3978 26.25 24.7794 26.092 25.0607 25.8107C25.342 25.5294 25.5 25.1478 25.5 24.75V13.5008H10.5Z" fill="#7CB342"/>
<path d="M18 6C13.5 6 10.7587 8.73375 10.5 12H25.5C25.2405 8.73375 22.5 6 18 6ZM15 10.1985C14.8011 10.1985 14.6103 10.1195 14.4697 9.97883C14.329 9.83818 14.25 9.64741 14.25 9.4485C14.25 9.24959 14.329 9.05882 14.4697 8.91817C14.6103 8.77752 14.8011 8.6985 15 8.6985C15.1989 8.6985 15.3897 8.77752 15.5303 8.91817C15.671 9.05882 15.75 9.24959 15.75 9.4485C15.75 9.64741 15.671 9.83818 15.5303 9.97883C15.3897 10.1195 15.1989 10.1985 15 10.1985ZM21 10.1985C20.8011 10.1985 20.6103 10.1195 20.4697 9.97883C20.329 9.83818 20.25 9.64741 20.25 9.4485C20.25 9.24959 20.329 9.05882 20.4697 8.91817C20.6103 8.77752 20.8011 8.6985 21 8.6985C21.1989 8.6985 21.3897 8.77752 21.5303 8.91817C21.671 9.05882 21.75 9.24959 21.75 9.4485C21.75 9.64741 21.671 9.83818 21.5303 9.97883C21.3897 10.1195 21.1989 10.1985 21 10.1985Z" fill="#7CB342"/>
<path d="M22.5 5.25L21.2505 7.12425" stroke="#7CB342" stroke-width="2" stroke-linecap="round"/>
<path d="M13.5 5.25L14.4998 6.8115" stroke="#7CB342" stroke-width="2" stroke-linecap="round"/>
</svg>
